<?xml version="1.0" encoding="utf-8"?>
<!-- Generator: Adobe Illustrator 15.1.0, SVG Export Plug-In . SVG Version: 6.00 Build 0)  -->
<svg version="1.2" baseProfile="tiny" id="Layer_1" xmlns="http://www.w3.org/2000/svg" xmlns:xlink="http://www.w3.org/1999/xlink"
	 x="0px" y="0px" width="14em" height="14em" viewBox="0 0 14 14" overflow="inherit" xml:space="preserve">
<g>
	<polygon fill="none" points="9.475,3.818 7,6.293 4.525,3.818 3.818,4.525 6.293,7 3.818,9.475 4.525,10.182 7,7.707 9.475,10.182 
		10.182,9.475 7.707,7 10.182,4.525 	"/>
	<path fill="#989898" d="M7,0C3.134,0,0,3.134,0,7s3.134,7,7,7s7-3.134,7-7S10.866,0,7,0z M10.182,9.475l-0.707,0.707L7,7.707
		l-2.475,2.475L3.818,9.475L6.293,7L3.818,4.525l0.707-0.707L7,6.293l2.475-2.475l0.707,0.707L7.707,7L10.182,9.475z"/>
</g>
</svg>
