<?xml version="1.0" encoding="utf-8"?>
<!-- Generator: Adobe Illustrator 16.0.0, SVG Export Plug-In . SVG Version: 6.00 Build 0)  -->
<!DOCTYPE svg PUBLIC "-//W3C//DTD SVG 1.1//EN" "http://www.w3.org/Graphics/SVG/1.1/DTD/svg11.dtd">
<svg version="1.1" id="Lager_1" xmlns="http://www.w3.org/2000/svg" xmlns:xlink="http://www.w3.org/1999/xlink" x="0px" y="0px"
	 width="426px" height="122px" viewBox="0 0 426 122" enable-background="new 0 0 426 122" xml:space="preserve">
<g>
	<path fill="#00AE4D" d="M423.579,37.881c9.324,32.568-13.09,69.769-50.064,80.371c-36.96,10.578-74.476-5.895-83.817-38.449
		c-9.322-32.556,13.096-64.843,50.057-75.432C376.726-6.219,414.258,5.35,423.579,37.881z"/>
	<g>
		<path fill="#FFFFFF" d="M421.063,38.77c-8.979-31.322-45.099-42.451-80.665-32.264C304.82,16.697,283.247,47.783,292.221,79.1
			c8.962,31.341,45.08,47.18,80.664,36.986C408.463,105.898,430.021,70.086,421.063,38.77z M367.125,104.235
			c-9.259,1.823-18.368,1.8-26.776,0.234c-2.709-7.956-5.528-25.897,13.459-44.999l-7.896,0.346
			c-13.454,13.244-15.37,31.503-12.634,42.98c-17.073-5.255-30.114-17.5-33.475-34.588c-5.388-27.33,13.892-52.846,45.691-59.108
			c31.812-6.247,63.239,3.536,68.621,30.878C419.492,67.3,398.929,97.977,367.125,104.235z"/>
		<g>
			<g>
				<path fill="#B2E7CA" d="M356.864,57.201c-6.685,7.762-11.991,17.729-11.991,17.729s-1.86-9.46,6.723-20.69"/>
				<path fill="#33BE71" d="M353.242,62.375c-0.962,1.647-7.406,10.455-7.406,10.455s0.75-5.513,4.432-10.915"/>
			</g>
			<g>
				<g>
					<path fill="#66CE94" d="M351.044,57.056c-8.271,8.089-10.561,17.999-10.561,17.999s4.085-6.049,17.616-13.986"/>
				</g>
				<path fill="#B2E7CA" d="M347.596,61.773c-1.974,2.438-5.175,9.695-5.175,9.695s4.713-5.445,7.879-8.367"/>
			</g>
			<g>
				<path fill="#33BE71" d="M351.666,55.649c-8.279,8.078-17.036,10.012-17.036,10.012s10.557,1.923,24.087-6.007"/>
				<path fill="#66CE94" d="M349.121,60.904c-8.201,4.158-11.718,4.143-11.718,4.143s5.412-2.865,9.516-6.177"/>
			</g>
			<path fill="#33BE71" d="M348.971,60.127c-5.774,6.623-11.778,8.844-11.778,8.844s5.335,1.037,10.712-5.076"/>
		</g>
		<path fill="#F9E500" d="M391.722,73.91c-0.249-2.189-3.454-2.406-4.662-4.112c-1.195-1.71,6.771,1.409,6.556-0.653
			c-0.212-2.062-4.461-2.637-6.444-3.98c-1.984-1.35,2.927,0.284,3.572-1.871c0.643-2.154-2.898-1.756-4.219-2.843
			c-1.332-1.101,2.581-0.142,4.926-1.446c2.354-1.312-7.714-1.732-9.438-2.127c-1.72-0.403,1.401-1.053,3.944-2.926
			c2.543-1.887,0.317-1.771-1.944-1.211c-2.264,0.54-1.974-0.777-3.137-3.156c-1.182-2.377-2.02-2.502-3.857-3.314
			c-1.814-0.815-1.772-0.905-2.523-2.223c-0.729-1.334-2.142-3.283-3.313-3.83c-1.174-0.561-2.175-2.037-2.822-3.313
			c-0.65-1.276-1.264-1.624-3.587-3.168c0,0-1.386,0.008-1.686-1.071c-0.311-1.088-1.672-0.488-1.959,0.039
			c-0.301,0.516-3.008-0.557-3.438-2.635c-0.427-2.07-2.084-1.979-3.205-1.82c-0.491,0.078-1.11,0.928-1.744,1.929
			c-0.82-1.526-1.648-2.995-1.683-1.302c-0.029,1.217,0.447,2.083,0.813,2.707c-0.483,0.799-0.942,1.512-1.325,1.869
			c-0.304-0.471-0.64-1-0.951-1.445c-0.753-1.053,0.743-3.416-0.161-4.337c-0.92-0.933-4.976-1.497-3.441-0.601
			c0.827,0.47,1.08,2.65,1.192,4.941c-0.684-0.814-1.521-1.859-2.679-3.32c-5.315-6.783-12.562-2.064-9.747-2.994
			c2.812-0.92,9.252,5.113,10.177,7.928c0.927,2.805-1.665-0.717-4.673-3.113c-2.374-1.874-7.554-2.613-8.057-2.023l-0.136-0.15
			c-2.185-0.967-4.919-4.288-6.786-3.373c-1.86,0.908,4.987,6.025,2.909,5.904c-2.095-0.125-3.949-2.736-5.957-1.782
			c-2.01,0.944-5.087-0.062-5.231,0.414c-0.147,0.499,1.177,1.011,2.617,1.7c1.458,0.671,3.141,1.475,0.716,0.938
			c-2.435-0.536-4.3,0.581-4.429,1.441c-0.117,0.844,5.966-1.783,10.775,2.085c4.808,3.891-6.882-2.563-10.527-0.484
			c-3.635,2.104,1.795,0.326,6.993,3.283c5.191,2.963-8.765-0.85-9.888,2.846c-1.123,3.721-1.159,0.562,1.375,1.727
			c2.552,1.172-2.734,1.176-0.807,1.997c1.926,0.838,12.063-2.385,17.197-0.361c5.138,2.027-7.969,0.489-8.728,1.888
			c-0.766,1.406-3.061,3.09,0.102,3.351c3.142,0.247,2.995-0.469,8.01-0.106c5.032,0.377-0.34,1.103-0.274,2.049
			c0.048,0.938,2.047,0.286,5.681-0.551c0.539-0.123,0.921-0.16,1.231-0.166c-2.247,1.741-5.779,3.335-6.642,4.438
			c-0.613,0.763,5.638,0.856,5.649-0.678c0-0.702,0.685-0.793,1.517-0.629c-0.045,0.279-0.023,0.553,0.106,0.811
			c0.992,1.914-3.387,3.223-3.416,4.914c-0.009,1.686,7.1-2.375,9.433-2.691c2.329-0.309-9.286,4.996-5.411,5.186
			c2.569,0.125,6.442-1.637,9.324-2.654c0.606,1.069,0.85,2.41-0.873,3.429c-2.563,1.513-0.542,0.681-0.111,3.724
			c0.661,4.625,2.681-2.479,4.249-1.605c-0.828,2.521-2.356,6.59-1.531,6.73c0.649,0.125,1.599-2.617,2.274-5.479
			c0.495,1.971-0.037,5.479,1.71,8.012c2.2,3.18,2.138-6.221,3.102-4.086c0.959,2.154,1.26,10.327,2.688,9.412
			c0.759-0.48,0.572-5.203,0.557-9.526c1.275,3.62,2.6,7.475,3.661,8.481c2.364,2.242-1.272-7.201-0.211-11.773
			c0.017-0.053,0.028-0.117,0.048-0.166c0.292,1.516,0.427,3.139,0.452,4.209c0.041,2.539,1.625-0.456,2.821,3.078
			c1.214,3.551,3.042,13.282,3.862,12.826c0.819-0.438-3.477-13.291-0.514-9.215c2.949,4.078,2.695,8.393,4.571,10.938
			c1.878,2.551,2.112-0.297,2.899-1.675c0.664-1.161-7.689-17.172-7.753-20.306c2.485,3.292,3.815,8.293,5.695,10.513
			c1.309,1.554,0.021-1.669-1.168-5.847c3.606,6.621,7.252,17.053,8.545,17.953c1.725,1.215-1.247-6.074,1.079-4.525
			c2.335,1.535-0.174,5.951,2.387,3.055c2.557-2.892-7.052-13.826-1.8-10.975c5.249,2.861,5.634,9.477,5.493,5.277
			c-0.157-4.195-10.642-9.114-4.821-7.074c5.835,2.036,5.661,6.98,6.309,6.434c0.657-0.545,0.641-2.727-1.098-4.51
			c-1.733-1.782-0.39-1.138,0.951-0.264c1.337,0.859,2.698,2.09,3.031,1.713C394.445,78.197,391.97,76.115,391.722,73.91z"/>
	</g>
	<g>
		<path fill="#FFFFFF" d="M30.159,51.869v-15.51c0-1.547-0.176-2.609-0.536-3.182c-0.636-1.268-1.641-1.926-2.98-1.96
			c-1.22,0.034-2.21,0.647-2.968,1.833c-0.371,0.618-0.559,1.255-0.559,1.933v1.441v15.444h-7.478V36.425
			c0-1.09-0.025-1.83-0.063-2.233c-0.048-0.389-0.225-0.771-0.541-1.141c-0.783-1.141-1.901-1.731-3.357-1.775
			c-1.396,0.044-2.502,0.646-3.326,1.84c-0.251,0.364-0.396,0.744-0.439,1.133c-0.083,0.371-0.128,1.115-0.128,2.236v15.385H0.301
			V37.672c0-2.244,0.138-3.982,0.419-5.209C0.973,31.3,1.44,30.154,2.11,29.027c2.162-3.201,5.12-4.834,8.884-4.919
			c3.001,0,5.608,1.173,7.808,3.526c2.546-2.354,5.14-3.506,7.778-3.471c3.799,0.041,6.803,1.706,8.997,4.979
			c0.815,1.119,1.356,2.285,1.64,3.49c0.195,0.633,0.317,1.352,0.359,2.154c0,0.837,0,1.816,0,2.938v14.144H30.159z"/>
		<path fill="#FFFFFF" d="M50.364,51.869H42.95V24.918h7.414V51.869z"/>
		<path fill="#FFFFFF" d="M55.871,51.869V9.988h7.425v41.881H55.871z"/>
		<path fill="#FFFFFF" d="M63.517,59.437c0.377,0,0.701,0,0.982,0c2.906,0.041,4.344-1.595,4.306-4.897v-2.52V24.911h7.417v26.882
			c0,1.588-0.018,2.875-0.058,3.828c-0.122,2.887-0.892,5.285-2.315,7.205c-1.861,2.512-4.592,3.795-8.193,3.829
			c-0.5,0-1.205-0.034-2.139-0.117V59.437z"/>
		<path fill="#FFFFFF" d="M107.925,38.377c-0.047,4.05-1.378,7.405-4.014,10.072c-2.59,2.738-5.855,4.146-9.794,4.223
			c-3.935-0.076-7.2-1.484-9.794-4.229c-2.678-2.68-4.031-6.016-4.07-10.023c0.039-4.066,1.393-7.459,4.07-10.176
			c2.594-2.719,5.838-4.1,9.735-4.136c3.939,0.036,7.224,1.421,9.853,4.144C106.547,30.928,107.878,34.306,107.925,38.377z
			 M100.421,38.318c-0.047-1.875-0.674-3.447-1.877-4.711c-1.182-1.252-2.688-1.895-4.508-1.936
			c-1.732,0.041-3.205,0.684-4.409,1.936c-1.257,1.264-1.892,2.85-1.892,4.77c0,1.926,0.635,3.529,1.892,4.811
			c1.204,1.348,2.701,2.021,4.478,2.021c1.816-0.047,3.32-0.735,4.499-2.081C99.774,41.837,100.374,40.234,100.421,38.318z"/>
		<path fill="#FFFFFF" d="M110.769,41.656c-0.043-3.295,0.158-5.748,0.598-7.361c0.415-1.626,1.221-3.179,2.436-4.639
			c2.771-3.428,6.287-5.172,10.547-5.21c3.801,0.038,6.958,1.376,9.473,4.011c2.55,2.633,3.848,5.912,3.886,9.85
			c-0.038,3.848-1.3,7.078-3.771,9.713c-2.478,2.711-5.513,4.1-9.119,4.182c-1.977,0.046-4.174-0.59-6.572-1.922v16.435h-7.477
			V41.656z M118.245,38.299c0,1.793,0.592,3.283,1.756,4.483c1.125,1.3,2.576,1.95,4.348,1.95c1.738,0,3.18-0.65,4.31-1.95
			c1.042-1.155,1.597-2.63,1.632-4.421c-0.035-1.793-0.603-3.32-1.69-4.578c-1.133-1.164-2.557-1.764-4.252-1.805
			c-1.709,0.041-3.137,0.641-4.286,1.805C118.892,34.998,118.286,36.511,118.245,38.299z"/>
		<path fill="#FFFFFF" d="M160.27,51.901v-2.22c-2.364,1.721-4.651,2.565-6.892,2.52c-3.443-0.082-6.384-1.455-8.812-4.131
			c-2.521-2.635-3.785-5.834-3.832-9.6c0.047-3.949,1.358-7.211,3.952-9.812c2.518-2.676,5.683-4.038,9.509-4.078
			c4.486,0.04,8.096,1.925,10.809,5.643c1.051,1.346,1.783,2.758,2.197,4.225c0.25,0.764,0.402,1.598,0.483,2.518
			c0.041,0.921,0.06,1.971,0.06,3.133v11.804H160.27z M160.177,37.998c-0.117-1.658-0.746-3.074-1.869-4.258
			c-1.128-1.08-2.531-1.648-4.191-1.689c-1.617,0.041-3.004,0.653-4.156,1.809c-1.166,1.268-1.766,2.802-1.812,4.594
			c0,1.8,0.627,3.3,1.877,4.509c1.15,1.308,2.566,1.958,4.276,1.958c1.692,0,3.11-0.65,4.245-1.958
			c1.044-1.165,1.588-2.688,1.631-4.569C160.177,38.277,160.177,38.143,160.177,37.998z"/>
		<path fill="#FFFFFF" d="M171.964,51.869V38.037c0-2.445,0.142-4.254,0.416-5.395c0.263-1.117,0.793-2.256,1.611-3.375
			c1.971-2.902,5.096-4.35,9.362-4.35c0.282,0,0.683,0,1.221,0v7.109c-0.378,0.042-0.684,0.059-0.925,0.059
			c-1.595-0.041-2.713,0.255-3.336,0.887c-0.664,0.658-0.977,1.781-0.932,3.378v15.519H171.964z"/>
		<path fill="#FFFFFF" d="M204.64,51.939c-0.559,0-1.062,0-1.512,0c-1.629,0-3.084-0.209-4.37-0.609
			c-1.582-0.6-3.008-1.587-4.271-2.982c-1.052-1.161-1.748-2.407-2.11-3.716c-0.373-1.282-0.582-3.149-0.62-5.581v-2.059v-4.722
			h-4.502v-7.353h4.502v-9.229h7.411v9.229h5.473v7.353h-5.473v5.401v1.076c0,1.215,0.059,2.094,0.188,2.646
			c0.073,0.592,0.243,1.12,0.493,1.567c0.332,0.632,0.868,1.069,1.643,1.315c0.728,0.309,1.781,0.467,3.148,0.467V51.939z"/>
		<path fill="#FFFFFF" d="M216.321,51.869h-7.416V24.918h7.416V51.869z"/>
		<path fill="#FFFFFF" d="M266.187,51.939c-0.551,0-1.057,0-1.521,0c-1.614,0-3.075-0.209-4.361-0.609
			c-1.576-0.6-3.006-1.587-4.273-2.982c-1.044-1.161-1.751-2.407-2.104-3.716c-0.371-1.282-0.58-3.149-0.622-5.581v-2.059v-4.722
			h-4.498v-7.353h4.498v-9.229h7.415v9.229h5.468v7.353h-5.468v5.401v1.076c0,1.215,0.053,2.094,0.176,2.646
			c0.079,0.592,0.251,1.12,0.506,1.567c0.317,0.632,0.868,1.069,1.638,1.315c0.731,0.309,1.775,0.467,3.148,0.467V51.939z"/>
		<ellipse fill="#FFFFFF" cx="46.642" cy="17.697" rx="4.146" ry="4.354"/>
		<ellipse fill="#FFFFFF" cx="212.566" cy="17.697" rx="4.146" ry="4.354"/>
		<ellipse fill="#FFFFFF" cx="72.5" cy="17.697" rx="4.147" ry="4.354"/>
		<path fill="#FFFFFF" d="M91.675,17.172c0,2.11-1.633,3.822-3.645,3.822s-3.644-1.712-3.644-3.822c0-2.115,1.632-3.827,3.644-3.827
			S91.675,15.057,91.675,17.172z"/>
		<path fill="#FFFFFF" d="M103.7,17.172c0,2.11-1.633,3.822-3.645,3.822c-2.014,0-3.645-1.712-3.645-3.822
			c0-2.115,1.631-3.827,3.645-3.827C102.067,13.345,103.7,15.057,103.7,17.172z"/>
		<g>
			<g>
				<path fill="#FFFFFF" d="M246.116,43.16c-2.408,5.928-6.697,8.95-12.851,9.063c-3.904-0.083-7.135-1.439-9.688-4.083
					c-2.641-2.603-3.981-5.865-4.022-9.802c0.041-3.952,1.382-7.214,4.022-9.775c2.553-2.594,5.762-3.926,9.619-3.962
					c3.647,0.036,6.788,1.239,9.419,3.593c2.607,2.315,3.939,5.1,4.021,8.359c0,1.479-0.541,2.636-1.623,3.481
					c-1.105,0.877-2.58,1.318-4.424,1.318h-12.998c0.629,1.596,1.625,2.635,2.976,3.124c0.817,0.386,1.664,0.581,2.55,0.581
					c1.55,0.04,3-0.585,4.35-1.898H246.116z M238.483,35.754c-1.068-2.62-2.898-3.929-5.489-3.929
					c-2.767,0.044-4.648,1.35-5.647,3.929H238.483z"/>
			</g>
		</g>
	</g>
	<g>
		<path fill="#FFFFFF" d="M192.194,70.816c0,2.111-1.628,3.826-3.644,3.826c-2.01,0-3.643-1.715-3.643-3.826
			c0-2.115,1.633-3.824,3.643-3.824C190.566,66.992,192.194,68.701,192.194,70.816z"/>
		<ellipse fill="#FFFFFF" cx="200.576" cy="70.816" rx="3.644" ry="3.826"/>
		<g>
			<path fill="#FFFFFF" d="M88.386,90.061c0,2.26-0.129,4.069-0.413,5.433c-0.273,1.385-0.841,2.722-1.692,4.005
				c-2.666,4.205-6.445,6.339-11.312,6.426c-3.828-0.045-6.995-1.418-9.507-4.133c-2.632-2.591-3.967-5.84-4.007-9.76
				c0.04-3.896,1.337-7.141,3.887-9.734c2.429-2.667,5.422-4.03,8.994-4.069c1.175,0,2.219,0.103,3.109,0.3
				c0.924,0.32,2.082,0.846,3.436,1.602V63.637h7.506V90.061z M68.87,92.074c0.036,1.789,0.644,3.265,1.805,4.426
				c1.151,1.296,2.562,1.945,4.215,1.945c1.74,0,3.185-0.649,4.303-1.945c1.125-1.161,1.721-2.637,1.781-4.426
				c-0.061-1.788-0.656-3.307-1.781-4.574c-1.118-1.203-2.562-1.819-4.303-1.863c-1.703,0.044-3.124,0.645-4.271,1.8
				C69.453,88.662,68.87,90.208,68.87,92.074z"/>
			<path fill="#FFFFFF" d="M144.474,108.12c0.791,3.627,2.748,5.487,5.876,5.559c3.603-0.03,5.452-2.62,5.556-7.769l0.057-2.451
				c-1.51,0.92-2.707,1.531-3.595,1.838c-0.892,0.328-1.924,0.488-3.112,0.488c-3.604-0.085-6.616-1.433-9.054-4.074
				c-2.513-2.594-3.794-5.82-3.829-9.66c0.035-4.035,1.371-7.342,4.009-9.945c2.52-2.635,5.704-3.973,9.569-4.01
				c4.021,0.037,7.244,1.412,9.65,4.135c2.48,2.678,3.738,6.256,3.779,10.729v11.954c0,2.718-0.176,4.84-0.541,6.379
				c-0.412,1.553-1.146,3.02-2.193,4.42c-2.633,3.338-6.084,5.052-10.346,5.133c-2.553-0.035-4.879-0.736-6.983-2.082
				c-2.153-1.28-3.778-3.036-4.871-5.256c-0.386-0.763-0.661-1.516-0.823-2.273c-0.247-0.75-0.455-1.795-0.613-3.114H144.474z
				 M155.906,91.973c-0.062-1.84-0.637-3.354-1.729-4.536c-1.124-1.167-2.564-1.769-4.307-1.81c-1.699,0.041-3.123,0.643-4.271,1.81
				c-1.172,1.183-1.752,2.708-1.752,4.595c0,1.801,0.58,3.279,1.752,4.443c1.148,1.307,2.572,1.963,4.271,1.963
				c1.742,0,3.183-0.629,4.307-1.896C155.33,95.378,155.906,93.846,155.906,91.973z"/>
			<path fill="#FFFFFF" d="M166.89,105.518V91.684c0-2.445,0.134-4.252,0.415-5.393c0.257-1.118,0.794-2.256,1.604-3.377
				c1.99-2.902,5.102-4.352,9.363-4.352c0.28,0,0.684,0,1.227,0v7.113c-0.38,0.037-0.683,0.059-0.936,0.059
				c-1.588-0.043-2.697,0.252-3.33,0.887c-0.661,0.657-0.965,1.781-0.928,3.375v15.521H166.89z"/>
			<path fill="#FFFFFF" d="M208.487,92.022c-0.044,4.05-1.383,7.407-4.015,10.075c-2.591,2.734-5.855,4.145-9.79,4.223
				c-3.938-0.078-7.209-1.488-9.805-4.229c-2.664-2.683-4.022-6.017-4.061-10.024c0.038-4.063,1.396-7.458,4.061-10.173
				c2.596-2.72,5.847-4.104,9.742-4.137c3.938,0.032,7.218,1.419,9.853,4.144C207.104,84.576,208.443,87.953,208.487,92.022z
				 M200.975,91.967c-0.041-1.873-0.662-3.447-1.866-4.715c-1.188-1.25-2.691-1.895-4.504-1.932
				c-1.741,0.037-3.21,0.682-4.418,1.932c-1.257,1.268-1.896,2.85-1.896,4.771c0,1.925,0.639,3.531,1.896,4.812
				c1.208,1.346,2.701,2.023,4.478,2.023c1.815-0.049,3.317-0.736,4.507-2.084C200.331,95.484,200.934,93.881,200.975,91.967z"/>
			<path fill="#FFFFFF" d="M227.913,105.518V91.202c0-1.239-0.02-2.127-0.08-2.63c-0.084-0.557-0.243-1.014-0.481-1.377
				c-0.849-1.437-2.062-2.17-3.655-2.211c-0.688,0-1.38,0.19-2.058,0.577c-0.689,0.446-1.245,1.001-1.653,1.634
				c-0.245,0.363-0.387,0.803-0.421,1.315c-0.116,0.506-0.179,1.427-0.179,2.752v14.255h-7.419V91.568
				c0-2.088,0.185-3.797,0.538-5.152c0.375-1.321,0.975-2.545,1.782-3.681c2.399-3.231,5.539-4.896,9.421-4.979
				c3.979,0.032,7.158,1.738,9.51,5.087c1.492,2.086,2.222,4.916,2.179,8.469v14.205H227.913z"/>
			<path fill="#FFFFFF" d="M258.711,105.551v-2.221c-2.36,1.719-4.656,2.568-6.886,2.52c-3.449-0.082-6.385-1.456-8.816-4.132
				c-2.514-2.638-3.791-5.834-3.83-9.603c0.039-3.945,1.354-7.207,3.951-9.81c2.512-2.676,5.688-4.039,9.505-4.078
				c4.493,0.039,8.093,1.925,10.809,5.644c1.058,1.343,1.795,2.758,2.204,4.225c0.244,0.762,0.399,1.598,0.481,2.518
				c0.036,0.919,0.058,1.967,0.058,3.133v11.805H258.711z M258.622,91.645c-0.12-1.658-0.748-3.072-1.866-4.258
				c-1.131-1.078-2.531-1.645-4.195-1.687c-1.614,0.042-3.005,0.649-4.151,1.808c-1.172,1.266-1.777,2.801-1.816,4.591
				c0,1.804,0.631,3.304,1.879,4.513c1.143,1.304,2.566,1.957,4.269,1.957c1.699,0,3.119-0.653,4.243-1.957
				c1.06-1.166,1.598-2.689,1.639-4.574C258.622,91.925,258.622,91.786,258.622,91.645z"/>
			<g>
				<path fill="#FFFFFF" d="M118.562,96.811c-2.407,5.925-6.698,8.948-12.85,9.063c-3.906-0.083-7.135-1.441-9.688-4.083
					c-2.641-2.604-3.982-5.866-4.023-9.803c0.041-3.951,1.383-7.215,4.023-9.773c2.553-2.594,5.761-3.926,9.619-3.965
					c3.646,0.039,6.787,1.24,9.418,3.594c2.607,2.318,3.939,5.1,4.021,8.357c0,1.482-0.541,2.637-1.623,3.482
					c-1.105,0.876-2.579,1.321-4.423,1.321h-13c0.631,1.593,1.626,2.63,2.978,3.123c0.816,0.384,1.665,0.579,2.549,0.579
					c1.551,0.041,3-0.586,4.348-1.896H118.562z M110.929,89.402c-1.068-2.617-2.898-3.926-5.488-3.926
					c-2.767,0.041-4.648,1.35-5.647,3.926H110.929z"/>
			</g>
		</g>
	</g>
</g>
</svg>
