<?xml version="1.0" encoding="utf-8"?>
<!-- Generator: Adobe Illustrator 15.1.0, SVG Export Plug-In  -->
<!DOCTYPE svg [
	<!ENTITY ns_flows "http://ns.adobe.com/Flows/1.0/">
]>
<svg version="1.2" baseProfile="tiny"
	 xmlns="http://www.w3.org/2000/svg" xmlns:xlink="http://www.w3.org/1999/xlink" xmlns:a="http://ns.adobe.com/AdobeSVGViewerExtensions/3.0/"
	 x="0px" y="0px" width="36px" height="32px" viewBox="-0.001 0 36 32" overflow="visible" xml:space="preserve">
<defs>
</defs>
<path fill="#339636" d="M35.603,9.771c2.441,8.526-3.427,18.266-13.106,21.039c-9.677,2.772-19.499-1.542-21.943-10.063
	C-1.889,12.223,3.98,3.771,13.658,0.999C23.338-1.775,33.163,1.254,35.603,9.771z"/>
<path fill="#FFFFFF" d="M34.951,10.003c-2.35-8.2-11.807-11.113-21.118-8.446C4.519,4.225-1.129,12.364,1.221,20.562
	c2.346,8.205,11.803,12.353,21.117,9.683C31.653,27.577,37.299,18.204,34.951,10.003z M20.831,27.145
	c-2.426,0.477-4.81,0.469-7.012,0.061c-0.708-2.085-1.446-6.781,3.525-11.782l-2.067,0.091c-3.523,3.466-4.025,8.249-3.309,11.252
	c-4.47-1.375-7.884-4.582-8.764-9.056C1.795,10.555,6.843,3.876,15.168,2.235C23.495,0.6,31.724,3.162,33.133,10.32
	C34.541,17.473,29.157,25.504,20.831,27.145z"/>
<path fill="#ADD5AF" d="M18.144,14.828c-1.749,2.034-3.139,4.644-3.139,4.644s-0.487-2.477,1.761-5.417"/>
<path fill="#5CAB5E" d="M17.195,16.184c-0.25,0.431-1.938,2.735-1.938,2.735s0.196-1.441,1.16-2.856"/>
<path fill="#85C086" d="M16.621,14.792c-2.165,2.116-2.765,4.712-2.765,4.712s1.068-1.585,4.611-3.663"/>
<path fill="#ADD5AF" d="M15.718,16.027c-0.517,0.638-1.354,2.538-1.354,2.538s1.234-1.425,2.062-2.191"/>
<path fill="#5CAB5E" d="M16.783,14.422c-2.167,2.116-4.46,2.622-4.46,2.622s2.764,0.502,6.306-1.573"/>
<path fill="#85C086" d="M16.117,15.798c-2.146,1.088-3.067,1.084-3.067,1.084s1.417-0.749,2.49-1.616"/>
<path fill="#5CAB5E" d="M16.079,15.595c-1.513,1.735-3.085,2.316-3.085,2.316s1.397,0.27,2.805-1.332"/>
<path fill="#FFE900" d="M27.271,19.204c-0.065-0.573-0.904-0.63-1.22-1.077c-0.313-0.448,1.771,0.371,1.716-0.169
	c-0.056-0.541-1.168-0.691-1.688-1.042c-0.519-0.355,0.767,0.073,0.936-0.491c0.17-0.564-0.758-0.458-1.104-0.744
	c-0.349-0.288,0.677-0.038,1.291-0.38c0.615-0.342-2.02-0.453-2.472-0.556c-0.45-0.104,0.366-0.275,1.031-0.768
	c0.667-0.492,0.084-0.462-0.509-0.315c-0.592,0.143-0.516-0.203-0.821-0.825c-0.309-0.624-0.528-0.656-1.009-0.87
	c-0.476-0.213-0.465-0.235-0.66-0.581c-0.191-0.349-0.562-0.859-0.868-1.002c-0.308-0.147-0.57-0.534-0.738-0.868
	c-0.172-0.335-0.331-0.425-0.94-0.829c0,0-0.362,0.001-0.44-0.282c-0.081-0.284-0.437-0.127-0.513,0.011
	c-0.08,0.135-0.787-0.146-0.9-0.69c-0.111-0.542-0.546-0.518-0.84-0.476c-0.129,0.02-0.29,0.242-0.456,0.503
	c-0.215-0.399-0.433-0.782-0.44-0.339c-0.007,0.318,0.117,0.546,0.213,0.709C16.71,8.331,16.59,8.518,16.49,8.611
	c-0.079-0.124-0.168-0.262-0.25-0.38c-0.196-0.275,0.196-0.893-0.042-1.134c-0.24-0.245-1.303-0.392-0.9-0.157
	c0.216,0.123,0.283,0.695,0.312,1.294c-0.179-0.214-0.399-0.487-0.701-0.87c-1.392-1.776-3.288-0.54-2.552-0.784
	c0.736-0.242,2.421,1.339,2.663,2.076c0.243,0.734-0.436-0.188-1.223-0.815c-0.623-0.491-1.978-0.684-2.108-0.53l-0.036-0.04
	C11.08,7.019,10.365,6.15,9.876,6.388c-0.487,0.238,1.307,1.578,0.762,1.546c-0.549-0.032-1.034-0.716-1.559-0.466
	c-0.526,0.248-1.332-0.015-1.37,0.11C7.67,7.707,8.018,7.841,8.395,8.021c0.382,0.176,0.821,0.386,0.187,0.246
	C7.944,8.126,7.456,8.42,7.423,8.645c-0.031,0.22,1.562-0.467,2.819,0.546c1.258,1.019-1.801-0.672-2.754-0.127
	c-0.953,0.551,0.47,0.086,1.83,0.859c1.358,0.776-2.296-0.222-2.59,0.746c-0.294,0.973-0.304,0.146,0.359,0.451
	c0.669,0.307-0.715,0.308-0.21,0.524c0.505,0.22,3.158-0.624,4.503-0.094c1.345,0.53-2.087,0.129-2.286,0.493
	c-0.2,0.368-0.801,0.81,0.027,0.878c0.822,0.065,0.784-0.122,2.098-0.027c1.316,0.098-0.09,0.289-0.073,0.535
	c0.014,0.246,0.537,0.076,1.488-0.143c0.141-0.033,0.24-0.043,0.321-0.045c-0.588,0.457-1.513,0.874-1.739,1.163
	c-0.159,0.198,1.478,0.225,1.479-0.177c0-0.184,0.181-0.208,0.398-0.166c-0.013,0.074-0.008,0.146,0.027,0.214
	c0.26,0.5-0.887,0.842-0.895,1.284c-0.003,0.443,1.858-0.62,2.47-0.704c0.61-0.081-2.431,1.308-1.417,1.357
	c0.674,0.032,1.688-0.429,2.441-0.693c0.158,0.279,0.223,0.63-0.229,0.896c-0.671,0.396-0.143,0.179-0.029,0.976
	c0.173,1.211,0.701-0.648,1.113-0.42c-0.218,0.659-0.618,1.725-0.402,1.763c0.17,0.032,0.418-0.687,0.596-1.435
	c0.129,0.516-0.009,1.435,0.447,2.097c0.576,0.832,0.561-1.628,0.813-1.07c0.251,0.564,0.329,2.704,0.703,2.465
	c0.199-0.126,0.15-1.362,0.146-2.496c0.334,0.949,0.682,1.959,0.959,2.222c0.618,0.587-0.335-1.885-0.055-3.083
	c0.004-0.014,0.007-0.03,0.011-0.044c0.078,0.398,0.113,0.823,0.119,1.104c0.011,0.665,0.427-0.119,0.739,0.807
	c0.317,0.927,0.796,3.476,1.011,3.356c0.214-0.115-0.909-3.48-0.134-2.413c0.772,1.068,0.705,2.198,1.196,2.865
	c0.491,0.668,0.553-0.079,0.758-0.44c0.175-0.304-2.013-4.496-2.028-5.315c0.651,0.861,0.998,2.17,1.49,2.753
	c0.344,0.407,0.006-0.437-0.305-1.532c0.943,1.733,1.899,4.466,2.236,4.701c0.451,0.317-0.326-1.591,0.283-1.186
	c0.61,0.402-0.046,1.558,0.625,0.799c0.669-0.756-1.848-3.619-0.472-2.873c1.374,0.75,1.475,2.48,1.438,1.381
	c-0.041-1.099-2.787-2.385-1.263-1.851c1.527,0.532,1.482,1.826,1.653,1.684c0.172-0.143,0.167-0.714-0.288-1.181
	c-0.454-0.467-0.103-0.298,0.249-0.07c0.35,0.227,0.706,0.549,0.794,0.45C27.983,20.327,27.335,19.781,27.271,19.204z"/>
</svg>
