<?xml version="1.0" encoding="utf-8"?>
<!-- Generator: Adobe Illustrator 15.1.0, SVG Export Plug-In  -->
<!DOCTYPE svg PUBLIC "-//W3C//DTD SVG 1.1//EN" "http://www.w3.org/Graphics/SVG/1.1/DTD/svg11.dtd" [
	<!ENTITY ns_flows "http://ns.adobe.com/Flows/1.0/">
]>
<svg version="1.1"
	 xmlns="http://www.w3.org/2000/svg" xmlns:xlink="http://www.w3.org/1999/xlink" xmlns:a="http://ns.adobe.com/AdobeSVGViewerExtensions/3.0/"
	 x="0px" y="0px" width="103px" height="90px" viewBox="0 0 103 90" overflow="visible" enable-background="new 0 0 103 90"
	 xml:space="preserve">
<defs>
</defs>
<path fill="#349737" d="M101.253,27.79c6.941,24.249-9.746,51.945-37.274,59.83C36.458,95.505,8.524,83.237,1.573,59.004
	C-5.371,34.763,11.321,10.724,38.844,2.84C66.373-5.048,94.314,3.568,101.253,27.79z"/>
<path fill="#FFFFFF" d="M99.4,28.45C92.718,5.129,65.822-3.156,39.341,4.429c-26.49,7.586-42.55,30.733-35.868,54.047
	c6.671,23.333,33.566,35.132,60.056,27.538C90.021,78.429,106.076,51.772,99.4,28.45z M59.243,77.198
	c-6.898,1.354-13.678,1.332-19.941,0.172c-2.014-5.93-4.113-19.282,10.026-33.508l-5.88,0.26c-10.02,9.858-11.448,23.457-9.409,32
	C21.328,72.21,11.619,63.093,9.116,50.367C5.105,30.019,19.461,11.024,43.138,6.356c23.682-4.649,47.084,2.637,51.09,22.995
	C98.234,49.692,82.923,72.532,59.243,77.198z"/>
<path fill="#BDD3AB" d="M51.6,42.17c-4.975,5.785-8.926,13.207-8.926,13.207s-1.386-7.044,5.007-15.405"/>
<path fill="#6CA857" d="M48.903,46.027c-0.711,1.225-5.51,7.778-5.51,7.778s0.558-4.097,3.299-8.123"/>
<path fill="#98BD80" d="M47.271,42.068c-6.158,6.019-7.863,13.403-7.863,13.403s3.039-4.51,13.115-10.418"/>
<path fill="#BDD3AB" d="M44.702,45.58c-1.47,1.814-3.852,7.22-3.852,7.22s3.51-4.055,5.865-6.233"/>
<path fill="#6CA857" d="M47.731,41.017c-6.163,6.017-12.684,7.456-12.684,7.456S42.907,49.9,52.98,44"/>
<path fill="#98BD80" d="M45.837,44.93c-6.104,3.094-8.724,3.083-8.724,3.083s4.03-2.13,7.083-4.597"/>
<path fill="#6CA857" d="M45.729,44.353c-4.302,4.934-8.773,6.586-8.773,6.586s3.974,0.767,7.976-3.787"/>
<path fill="#FFE90A" d="M77.556,54.616c-0.186-1.633-2.572-1.794-3.469-3.066c-0.891-1.272,5.035,1.056,4.881-0.48
	c-0.16-1.539-3.322-1.966-4.803-2.965c-1.474-1.01,2.18,0.208,2.66-1.395c0.484-1.604-2.154-1.304-3.141-2.117
	c-0.992-0.819,1.924-0.108,3.672-1.08c1.75-0.972-5.744-1.287-7.029-1.582c-1.28-0.297,1.042-0.783,2.932-2.183
	c1.898-1.399,0.24-1.313-1.446-0.897c-1.684,0.405-1.467-0.578-2.336-2.347c-0.878-1.773-1.503-1.865-2.869-2.474
	c-1.353-0.606-1.322-0.668-1.878-1.651c-0.544-0.992-1.597-2.444-2.469-2.85c-0.875-0.418-1.622-1.518-2.1-2.469
	c-0.489-0.952-0.941-1.208-2.675-2.356c0,0-1.03,0.004-1.253-0.801c-0.23-0.807-1.241-0.361-1.458,0.031
	c-0.228,0.385-2.238-0.416-2.561-1.962c-0.316-1.54-1.552-1.473-2.388-1.353c-0.366,0.056-0.825,0.688-1.297,1.431
	c-0.611-1.136-1.23-2.225-1.252-0.965c-0.019,0.905,0.333,1.552,0.605,2.016c-0.36,0.594-0.703,1.125-0.985,1.391
	c-0.225-0.351-0.478-0.746-0.711-1.08c-0.558-0.784,0.559-2.539-0.12-3.226c-0.683-0.696-3.705-1.115-2.561-0.447
	c0.614,0.35,0.806,1.976,0.889,3.68c-0.509-0.608-1.136-1.384-1.994-2.475c-3.958-5.051-9.352-1.536-7.257-2.229
	c2.094-0.688,6.885,3.808,7.574,5.904c0.691,2.089-1.238-0.534-3.477-2.317c-1.772-1.397-5.624-1.946-5.996-1.508l-0.103-0.112
	c-1.63-0.72-3.664-3.188-5.055-2.512c-1.386,0.676,3.716,4.488,2.167,4.396c-1.561-0.09-2.941-2.036-4.432-1.327
	c-1.497,0.706-3.789-0.042-3.897,0.312c-0.111,0.369,0.878,0.75,1.95,1.261c1.085,0.5,2.335,1.097,0.53,0.7
	c-1.811-0.401-3.199,0.436-3.294,1.073c-0.088,0.626,4.441-1.328,8.018,1.554c3.577,2.897-5.121-1.911-7.832-0.362
	c-2.711,1.566,1.335,0.244,5.205,2.444c3.863,2.207-6.53-0.63-7.366,2.122c-0.836,2.766-0.864,0.415,1.022,1.281
	c1.902,0.873-2.033,0.876-0.597,1.49c1.436,0.625,8.981-1.773,12.806-0.268c3.825,1.508-5.935,0.367-6.501,1.401
	c-0.569,1.045-2.277,2.304,0.078,2.497c2.339,0.185,2.23-0.346,5.966-0.078c3.744,0.278-0.255,0.82-0.208,1.522
	c0.039,0.698,1.527,0.215,4.232-0.405c0.4-0.093,0.684-0.123,0.914-0.129c-1.672,1.3-4.302,2.484-4.946,3.308
	c-0.454,0.564,4.201,0.639,4.207-0.504c0-0.523,0.514-0.591,1.133-0.471c-0.036,0.21-0.022,0.416,0.077,0.609
	c0.739,1.422-2.521,2.396-2.543,3.652c-0.008,1.259,5.285-1.762,7.023-2.001c1.736-0.229-6.912,3.72-4.03,3.859
	c1.917,0.091,4.799-1.219,6.943-1.972c0.451,0.794,0.634,1.792-0.649,2.548c-1.908,1.128-0.405,0.509-0.083,2.774
	c0.491,3.444,1.994-1.844,3.166-1.194c-0.619,1.875-1.758,4.905-1.144,5.013c0.483,0.092,1.188-1.952,1.694-4.08
	c0.367,1.466-0.025,4.077,1.272,5.962c1.639,2.367,1.594-4.629,2.313-3.041c0.714,1.605,0.936,7.687,2,7.01
	c0.566-0.361,0.427-3.874,0.414-7.099c0.949,2.7,1.938,5.572,2.727,6.318c1.758,1.669-0.952-5.363-0.155-8.768
	c0.011-0.039,0.019-0.083,0.03-0.125c0.222,1.133,0.323,2.341,0.339,3.138c0.03,1.892,1.214-0.339,2.102,2.297
	c0.903,2.636,2.264,9.88,2.875,9.542c0.608-0.328-2.586-9.898-0.38-6.859c2.196,3.038,2.005,6.249,3.402,8.145
	c1.396,1.9,1.571-0.225,2.155-1.252c0.497-0.863-5.724-12.784-5.769-15.113c1.852,2.446,2.838,6.171,4.238,7.826
	c0.977,1.158,0.017-1.241-0.866-4.354c2.682,4.93,5.401,12.7,6.359,13.368c1.284,0.902-0.927-4.525,0.806-3.371
	c1.735,1.145-0.13,4.429,1.778,2.271c1.902-2.148-5.255-10.291-1.341-8.167c3.908,2.13,4.193,7.054,4.087,3.927
	c-0.117-3.125-7.926-6.782-3.591-5.263c4.343,1.513,4.216,5.193,4.703,4.788c0.488-0.405,0.475-2.03-0.82-3.357
	c-1.291-1.328-0.291-0.847,0.709-0.2c0.994,0.645,2.008,1.562,2.258,1.281C79.583,57.81,77.74,56.255,77.556,54.616z"/>
</svg>
