<?xml version="1.0" encoding="utf-8"?>
<!-- Generator: Adobe Illustrator 15.1.0, SVG Export Plug-In . SVG Version: 6.00 Build 0)  -->
<svg version="1.2" baseProfile="tiny" id="Layer_1" xmlns="http://www.w3.org/2000/svg" xmlns:xlink="http://www.w3.org/1999/xlink"
	 x="0px" y="0px" width="15em" height="15em" viewBox="0 0 15 15" overflow="inherit" xml:space="preserve">
<g>
	<ellipse fill="none" cx="6.029" cy="6.019" rx="4.02" ry="4.012"/>
	<path fill="#349837" d="M12.057,6.019C12.057,2.694,9.357,0,6.029,0C2.699,0,0,2.694,0,6.019s2.699,6.02,6.029,6.02
		c1.203,0,2.317-0.361,3.258-0.969L13.224,15L15,13.227l-3.93-3.923C11.689,8.358,12.057,7.232,12.057,6.019z M6.029,10.031
		c-2.221,0-4.02-1.797-4.02-4.013s1.799-4.012,4.02-4.012c2.219,0,4.018,1.796,4.018,4.012S8.248,10.031,6.029,10.031z"/>
</g>
</svg>
