<?xml version="1.0" encoding="utf-8"?>
<!-- Generator: Adobe Illustrator 16.0.0, SVG Export Plug-In . SVG Version: 6.00 Build 0)  -->
<!DOCTYPE svg PUBLIC "-//W3C//DTD SVG 1.1//EN" "http://www.w3.org/Graphics/SVG/1.1/DTD/svg11.dtd">
<svg version="1.1" id="Layer_1" xmlns="http://www.w3.org/2000/svg" xmlns:xlink="http://www.w3.org/1999/xlink" x="0px" y="0px"
	 width="32px" height="32px" viewBox="0 0 32 32" enable-background="new 0 0 32 32" xml:space="preserve">
<path fill="#FFFFFF" d="M32,29.764l-8.012-8.012c4.158-5.271,3.816-12.958-1.047-17.82C20.406,1.396,17.031,0,13.437,0
	c-3.593,0-6.97,1.396-9.504,3.932C1.396,6.468,0,9.844,0,13.438c0,3.593,1.396,6.97,3.932,9.503
	c2.535,2.537,5.911,3.934,9.504,3.934c3.06,0,5.956-1.021,8.315-2.887L29.764,32L32,29.764z M5.609,21.264
	c-2.087-2.086-3.237-4.865-3.237-7.826s1.15-5.741,3.237-7.829c2.087-2.088,4.867-3.237,7.827-3.237
	c2.961,0,5.741,1.149,7.827,3.237c4.316,4.316,4.316,11.338,0,15.654c-2.086,2.088-4.866,3.238-7.827,3.238
	C10.476,24.502,7.696,23.352,5.609,21.264z"/>
</svg>
