<?xml version="1.0" encoding="utf-8"?>
<!-- Generator: Adobe Illustrator 15.1.0, SVG Export Plug-In . SVG Version: 6.00 Build 0)  -->
<svg version="1.2" baseProfile="tiny" id="Layer_1" xmlns="http://www.w3.org/2000/svg" xmlns:xlink="http://www.w3.org/1999/xlink"
	 x="0px" y="0px" width="20px" height="20px" viewBox="0 0 20 20" overflow="inherit" xml:space="preserve">
<g>
	<path fill="none" d="M15.821,4.214c-1.607-1.607-3.542-2.41-5.803-2.41c-2.286,0-4.209,0.797-5.769,2.392
		C3.464,4.994,2.86,5.89,2.437,6.884C2.015,7.878,1.803,8.917,1.803,10c0,1.072,0.212,2.104,0.634,3.098
		c0.423,0.994,1.027,1.881,1.813,2.661c0.786,0.78,1.672,1.375,2.661,1.786c0.988,0.41,2.023,0.616,3.107,0.616
		c1.07,0,2.109-0.208,3.115-0.625c1.007-0.417,1.913-1.019,2.724-1.804c1.559-1.524,2.339-3.435,2.339-5.732
		c0-1.107-0.202-2.155-0.607-3.143C17.185,5.869,16.595,4.988,15.821,4.214z M8.821,12.687c-0.464,0.28-0.976,0.421-1.535,0.421
		c-0.893,0-1.614-0.274-2.161-0.821C4.577,11.738,4.303,10.976,4.303,10c0-0.952,0.277-1.708,0.831-2.268
		c0.553-0.559,1.253-0.839,2.098-0.839c1.238,0,2.125,0.482,2.661,1.446l-1.34,0.697C8.41,8.738,8.235,8.53,8.027,8.411
		C7.818,8.292,7.625,8.232,7.446,8.232c-0.893,0-1.339,0.589-1.339,1.768c0,0.536,0.113,0.964,0.339,1.286
		c0.226,0.321,0.56,0.481,1,0.481c0.583,0,0.994-0.285,1.232-0.856l1.233,0.625C9.649,12.024,9.286,12.408,8.821,12.687z
		 M14.589,12.687c-0.464,0.28-0.97,0.421-1.518,0.421c-0.905,0-1.628-0.274-2.169-0.821c-0.542-0.548-0.813-1.311-0.813-2.286
		c0-0.952,0.277-1.708,0.83-2.268c0.555-0.559,1.253-0.839,2.1-0.839c1.237,0,2.118,0.482,2.642,1.446l-1.321,0.697
		c-0.143-0.298-0.317-0.506-0.526-0.625c-0.208-0.119-0.408-0.179-0.599-0.179c-0.893,0-1.339,0.589-1.339,1.768
		c0,0.536,0.113,0.964,0.339,1.286c0.227,0.321,0.561,0.481,1,0.481c0.583,0,0.994-0.285,1.232-0.856l1.25,0.625
		C15.422,12.024,15.053,12.408,14.589,12.687z"/>
	<path fill="#DDDDDD" d="M17.125,2.929C15.161,0.976,12.779,0,9.982,0C7.208,0,4.869,0.97,2.964,2.911
		C2,3.875,1.265,4.967,0.759,6.188C0.253,7.408,0,8.679,0,10c0,1.333,0.25,2.601,0.75,3.804c0.5,1.202,1.229,2.283,2.187,3.241
		s2.042,1.69,3.25,2.196C7.396,19.747,8.661,20,9.982,20c1.32,0,2.601-0.256,3.839-0.768c1.238-0.513,2.345-1.25,3.322-2.215
		c0.939-0.917,1.65-1.973,2.134-3.17C19.759,12.652,20,11.369,20,10c0-1.357-0.244-2.64-0.731-3.848
		C18.779,4.944,18.065,3.869,17.125,2.929z M15.857,15.732c-0.811,0.785-1.717,1.387-2.724,1.804
		c-1.006,0.417-2.045,0.625-3.115,0.625c-1.084,0-2.119-0.206-3.107-0.616c-0.989-0.411-1.875-1.006-2.661-1.786
		c-0.786-0.78-1.39-1.667-1.813-2.661C2.015,12.104,1.803,11.072,1.803,10c0-1.083,0.212-2.122,0.634-3.116
		C2.86,5.89,3.464,4.994,4.25,4.196c1.559-1.595,3.482-2.392,5.769-2.392c2.261,0,4.195,0.803,5.803,2.41
		c0.773,0.774,1.363,1.655,1.768,2.643c0.405,0.988,0.607,2.036,0.607,3.143C18.196,12.298,17.416,14.208,15.857,15.732z"/>
	<path fill="#DDDDDD" d="M7.446,11.768c-0.44,0-0.774-0.16-1-0.481C6.22,10.964,6.107,10.536,6.107,10
		c0-1.179,0.446-1.768,1.339-1.768c0.179,0,0.372,0.06,0.581,0.179C8.235,8.53,8.41,8.738,8.553,9.036l1.34-0.697
		C9.357,7.375,8.47,6.893,7.232,6.893c-0.845,0-1.545,0.28-2.098,0.839C4.58,8.292,4.303,9.048,4.303,10
		c0,0.976,0.274,1.738,0.822,2.286c0.547,0.547,1.268,0.821,2.161,0.821c0.559,0,1.071-0.141,1.535-0.421
		c0.465-0.278,0.828-0.662,1.09-1.15l-1.233-0.625C8.44,11.482,8.029,11.768,7.446,11.768z"/>
	<path fill="#DDDDDD" d="M13.214,11.768c-0.439,0-0.773-0.16-1-0.481c-0.226-0.322-0.339-0.75-0.339-1.286
		c0-1.179,0.446-1.768,1.339-1.768c0.19,0,0.391,0.06,0.599,0.179c0.209,0.119,0.384,0.327,0.526,0.625l1.321-0.697
		c-0.523-0.964-1.404-1.446-2.642-1.446c-0.847,0-1.545,0.28-2.1,0.839c-0.553,0.56-0.83,1.316-0.83,2.268
		c0,0.976,0.271,1.738,0.813,2.286c0.541,0.547,1.264,0.821,2.169,0.821c0.548,0,1.054-0.141,1.518-0.421
		c0.464-0.278,0.833-0.662,1.107-1.15l-1.25-0.625C14.208,11.482,13.797,11.768,13.214,11.768z"/>
</g>
</svg>
