<?xml version="1.0" encoding="utf-8"?>
<!-- Generator: Adobe Illustrator 15.1.0, SVG Export Plug-In . SVG Version: 6.00 Build 0)  -->
<svg version="1.2" baseProfile="tiny" id="Layer_1" xmlns="http://www.w3.org/2000/svg" xmlns:xlink="http://www.w3.org/1999/xlink"
	 x="0px" y="0px" width="290em" height="46em" viewBox="0 0 290 46" overflow="inherit" xml:space="preserve">
<g>
	<g>
		<path fill="#339636" d="M13.891,29.374v-7.215c0-0.72-0.082-1.213-0.25-1.48c-0.296-0.589-0.764-0.896-1.387-0.911
			c-0.568,0.015-1.027,0.301-1.38,0.853c-0.173,0.287-0.26,0.584-0.26,0.899v0.672v7.183H7.135V22.19
			c0-0.508-0.012-0.853-0.03-1.042c-0.022-0.181-0.103-0.357-0.251-0.53c-0.365-0.531-0.884-0.806-1.561-0.826
			c-0.65,0.02-1.164,0.301-1.548,0.856c-0.117,0.168-0.185,0.346-0.204,0.527c-0.038,0.173-0.06,0.519-0.06,1.041v7.157H0V22.77
			c0-1.044,0.064-1.853,0.195-2.424c0.117-0.541,0.334-1.074,0.646-1.598c1.006-1.49,2.381-2.249,4.133-2.289
			c1.396,0,2.609,0.546,3.633,1.642c1.186-1.096,2.391-1.632,3.618-1.615c1.768,0.02,3.164,0.794,4.186,2.315
			c0.379,0.521,0.632,1.063,0.763,1.624c0.091,0.295,0.147,0.628,0.166,1.002c0,0.389,0,0.845,0,1.366v6.58H13.891z"/>
		<path fill="#339636" d="M23.731,13.423c0,0.562-0.182,1.047-0.541,1.456c-0.377,0.411-0.839,0.615-1.384,0.615
			c-0.542,0-0.993-0.204-1.353-0.615c-0.378-0.388-0.566-0.868-0.566-1.428c0-0.563,0.188-1.037,0.566-1.426
			c0.359-0.375,0.811-0.559,1.353-0.559c0.545,0,1.007,0.183,1.384,0.559C23.55,12.385,23.731,12.854,23.731,13.423z M23.642,29.374
			h-3.45V16.835h3.45V29.374z"/>
		<path fill="#339636" d="M26.203,29.374V9.891h3.453v19.482H26.203z"/>
		<path fill="#339636" d="M29.759,32.894c0.176,0,0.327,0,0.457,0c1.354,0.019,2.021-0.743,2.003-2.278v-1.172V16.833h3.451v12.505
			c0,0.739-0.009,1.337-0.027,1.78c-0.057,1.343-0.414,2.459-1.077,3.353c-0.866,1.169-2.135,1.765-3.811,1.78
			c-0.232,0-0.562-0.015-0.996-0.053V32.894z M35.758,13.39c0,0.562-0.181,1.048-0.539,1.458c-0.38,0.409-0.841,0.613-1.381,0.613
			c-0.527,0-0.971-0.204-1.331-0.613c-0.395-0.374-0.591-0.837-0.591-1.397c0-0.593,0.188-1.077,0.565-1.458
			c0.359-0.373,0.811-0.558,1.356-0.558c0.54,0,1.001,0.186,1.381,0.558C35.577,12.354,35.758,12.821,35.758,13.39z"/>
		<path fill="#339636" d="M50.417,23.096c-0.021,1.883-0.641,3.445-1.866,4.686c-1.206,1.274-2.725,1.93-4.556,1.965
			c-1.831-0.035-3.35-0.691-4.557-1.968c-1.246-1.245-1.876-2.797-1.894-4.663c0.018-1.89,0.647-3.469,1.894-4.733
			c1.207-1.264,2.715-1.907,4.528-1.924c1.832,0.018,3.361,0.663,4.584,1.929C49.776,19.632,50.396,21.203,50.417,23.096z
			 M41.218,11.206c0.496,0.021,0.896,0.197,1.21,0.531c0.304,0.33,0.458,0.751,0.458,1.254s-0.161,0.911-0.483,1.224
			c-0.312,0.353-0.727,0.526-1.24,0.526c-0.487,0-0.891-0.173-1.213-0.526c-0.36-0.33-0.539-0.75-0.539-1.252
			c0-0.503,0.169-0.924,0.511-1.258c0.322-0.329,0.728-0.499,1.213-0.499H41.218z M46.926,23.069
			c-0.021-0.871-0.312-1.602-0.873-2.191c-0.549-0.583-1.248-0.882-2.095-0.9c-0.808,0.018-1.492,0.318-2.053,0.9
			c-0.585,0.589-0.88,1.326-0.88,2.218c0,0.897,0.295,1.643,0.88,2.239c0.561,0.626,1.257,0.939,2.083,0.939
			c0.846-0.021,1.544-0.342,2.093-0.967C46.626,24.707,46.904,23.961,46.926,23.069z M46.813,11.206c0.489,0,0.893,0.17,1.214,0.499
			c0.322,0.334,0.492,0.755,0.512,1.258c-0.02,0.502-0.189,0.922-0.512,1.252c-0.321,0.353-0.736,0.526-1.241,0.526
			c-0.489,0-0.894-0.173-1.216-0.526c-0.341-0.33-0.508-0.75-0.508-1.252c0-0.503,0.174-0.924,0.535-1.258
			C45.924,11.376,46.327,11.206,46.813,11.206z"/>
		<path fill="#339636" d="M52.357,24.622c-0.021-1.533,0.074-2.675,0.276-3.422c0.194-0.758,0.569-1.481,1.133-2.16
			c1.29-1.594,2.926-2.404,4.906-2.423c1.769,0.019,3.237,0.64,4.407,1.865c1.187,1.225,1.792,2.751,1.809,4.583
			c-0.017,1.789-0.604,3.292-1.755,4.518c-1.154,1.261-2.564,1.907-4.242,1.947c-0.921,0.021-1.94-0.277-3.057-0.896v7.646h-3.478
			V24.622z M55.835,23.062c0,0.833,0.274,1.528,0.816,2.085c0.523,0.605,1.199,0.907,2.021,0.907c0.809,0,1.479-0.302,2.006-0.907
			c0.485-0.538,0.742-1.224,0.761-2.057c-0.019-0.833-0.282-1.544-0.788-2.129c-0.527-0.542-1.188-0.821-1.979-0.841
			c-0.793,0.02-1.459,0.299-1.993,0.841C56.135,21.525,55.854,22.229,55.835,23.062z"/>
		<path fill="#339636" d="M75.521,29.389v-1.033c-1.097,0.8-2.162,1.194-3.204,1.173c-1.601-0.04-2.969-0.678-4.099-1.924
			c-1.173-1.225-1.762-2.713-1.783-4.465c0.021-1.837,0.632-3.354,1.84-4.565c1.169-1.244,2.643-1.877,4.422-1.896
			c2.088,0.019,3.766,0.896,5.029,2.624c0.488,0.628,0.827,1.284,1.022,1.967c0.115,0.354,0.187,0.743,0.223,1.171
			c0.02,0.427,0.029,0.916,0.029,1.457v5.491H75.521z M75.48,22.921c-0.054-0.771-0.348-1.43-0.87-1.979
			c-0.523-0.503-1.177-0.767-1.95-0.788c-0.752,0.021-1.396,0.304-1.932,0.842c-0.544,0.588-0.822,1.303-0.844,2.137
			c0,0.836,0.293,1.535,0.873,2.098c0.534,0.607,1.194,0.911,1.989,0.911c0.789,0,1.446-0.304,1.975-0.911
			c0.485-0.543,0.739-1.251,0.759-2.126C75.48,23.051,75.48,22.987,75.48,22.921z"/>
		<path fill="#339636" d="M81.542,29.374v-6.436c0-1.138,0.064-1.978,0.193-2.509c0.121-0.52,0.369-1.048,0.747-1.57
			c0.919-1.349,2.373-2.024,4.355-2.024c0.131,0,0.319,0,0.568,0v3.309c-0.175,0.018-0.317,0.027-0.43,0.027
			c-0.742-0.019-1.261,0.118-1.552,0.412c-0.31,0.308-0.453,0.829-0.433,1.572v7.219H81.542z"/>
		<path fill="#339636" d="M96.269,29.406c-0.262,0-0.495,0-0.705,0c-0.758,0-1.434-0.096-2.033-0.283
			c-0.736-0.279-1.4-0.738-1.988-1.387c-0.486-0.541-0.812-1.12-0.98-1.729c-0.173-0.596-0.271-1.465-0.288-2.597v-0.958v-2.195
			H88.18v-3.421h2.094v-4.293h3.446v4.293h2.549v3.421H93.72v2.513v0.5c0,0.565,0.029,0.974,0.088,1.23
			c0.034,0.277,0.114,0.522,0.232,0.731c0.151,0.293,0.4,0.498,0.762,0.611c0.34,0.144,0.829,0.218,1.467,0.218V29.406z"/>
		<path fill="#339636" d="M101.654,13.423c0,0.562-0.18,1.047-0.54,1.456c-0.376,0.411-0.837,0.615-1.382,0.615
			c-0.542,0-0.994-0.204-1.355-0.615c-0.375-0.388-0.564-0.868-0.564-1.428c0-0.563,0.189-1.037,0.564-1.426
			c0.361-0.375,0.813-0.559,1.355-0.559c0.545,0,1.006,0.183,1.382,0.559C101.475,12.385,101.654,12.854,101.654,13.423z
			 M101.565,29.374h-3.449V16.835h3.449V29.374z"/>
		<path fill="#339636" d="M115.859,25.312c-1.12,2.757-3.116,4.164-5.977,4.217c-1.816-0.04-3.318-0.671-4.507-1.9
			c-1.227-1.21-1.852-2.729-1.87-4.56c0.019-1.838,0.644-3.355,1.87-4.545c1.188-1.208,2.681-1.826,4.476-1.845
			c1.696,0.019,3.156,0.577,4.38,1.672c1.214,1.078,1.833,2.372,1.87,3.888c0,0.689-0.251,1.227-0.755,1.62
			c-0.514,0.407-1.199,0.613-2.057,0.613h-6.047c0.294,0.743,0.757,1.226,1.386,1.453c0.379,0.18,0.773,0.271,1.186,0.271
			c0.721,0.018,1.396-0.273,2.022-0.884H115.859z M112.31,21.867c-0.496-1.218-1.349-1.827-2.552-1.827
			c-1.287,0.021-2.163,0.628-2.628,1.827H112.31z"/>
		<path fill="#339636" d="M124.393,29.406c-0.256,0-0.49,0-0.705,0c-0.753,0-1.433-0.096-2.032-0.283
			c-0.732-0.279-1.395-0.738-1.985-1.387c-0.485-0.541-0.816-1.12-0.98-1.729c-0.174-0.596-0.271-1.465-0.291-2.597v-0.958v-2.195
			h-2.092v-3.421h2.092v-4.293h3.45v4.293h2.544v3.421h-2.544v2.513v0.5c0,0.565,0.027,0.974,0.084,1.23
			c0.035,0.277,0.114,0.522,0.235,0.731c0.148,0.293,0.402,0.498,0.759,0.611c0.341,0.144,0.828,0.218,1.466,0.218V29.406z"/>
		<path fill="#339636" d="M145.157,22.185c0,1.049-0.062,1.893-0.194,2.526c-0.125,0.645-0.39,1.266-0.786,1.862
			c-1.239,1.958-2.997,2.95-5.263,2.99c-1.78-0.02-3.254-0.659-4.423-1.921c-1.224-1.206-1.845-2.719-1.863-4.541
			c0.019-1.814,0.622-3.323,1.808-4.528c1.13-1.242,2.523-1.875,4.185-1.894c0.547,0,1.033,0.047,1.446,0.139
			c0.43,0.149,0.968,0.394,1.599,0.744V9.891h3.492V22.185z M136.078,23.122c0.017,0.832,0.299,1.519,0.84,2.058
			c0.535,0.603,1.191,0.905,1.96,0.905c0.81,0,1.481-0.302,2.002-0.905c0.523-0.539,0.801-1.226,0.827-2.058
			c-0.026-0.833-0.304-1.541-0.827-2.131c-0.521-0.558-1.192-0.844-2.002-0.864c-0.791,0.02-1.453,0.298-1.987,0.836
			C136.349,21.533,136.078,22.252,136.078,23.122z"/>
		<path fill="#339636" d="M159.474,25.312c-1.121,2.757-3.113,4.164-5.975,4.217c-1.818-0.04-3.32-0.671-4.513-1.9
			c-1.226-1.21-1.848-2.729-1.866-4.56c0.019-1.838,0.641-3.355,1.866-4.545c1.192-1.208,2.684-1.826,4.482-1.845
			c1.692,0.019,3.151,0.577,4.381,1.672c1.205,1.078,1.833,2.372,1.867,3.888c0,0.689-0.252,1.227-0.755,1.62
			c-0.516,0.407-1.2,0.613-2.055,0.613h-6.048c0.293,0.743,0.753,1.226,1.384,1.453c0.378,0.18,0.771,0.271,1.184,0.271
			c0.723,0.018,1.397-0.273,2.023-0.884H159.474z M155.923,21.867c-0.496-1.218-1.346-1.827-2.556-1.827
			c-1.28,0.021-2.158,0.628-2.623,1.827H155.923z"/>
		<path fill="#339636" d="M171.599,30.583c0.37,1.687,1.28,2.553,2.733,2.588c1.676-0.016,2.537-1.22,2.584-3.614l0.027-1.141
			c-0.701,0.427-1.26,0.713-1.672,0.855c-0.414,0.153-0.896,0.227-1.448,0.227c-1.677-0.04-3.077-0.667-4.212-1.896
			c-1.168-1.206-1.765-2.707-1.781-4.494c0.017-1.875,0.639-3.414,1.865-4.625c1.173-1.226,2.652-1.848,4.451-1.867
			c1.871,0.019,3.369,0.659,4.49,1.924c1.154,1.246,1.738,2.911,1.758,4.991v5.562c0,1.264-0.084,2.251-0.252,2.966
			c-0.191,0.723-0.533,1.405-1.02,2.055c-1.227,1.554-2.832,2.353-4.812,2.388c-1.188-0.017-2.27-0.341-3.249-0.967
			c-1.002-0.596-1.758-1.413-2.266-2.445c-0.179-0.355-0.309-0.704-0.384-1.057c-0.114-0.349-0.213-0.834-0.285-1.45H171.599z
			 M176.916,23.072c-0.029-0.855-0.295-1.558-0.803-2.109c-0.525-0.542-1.193-0.824-2.004-0.844c-0.79,0.02-1.452,0.302-1.986,0.844
			c-0.546,0.551-0.815,1.261-0.815,2.137c0,0.837,0.27,1.524,0.815,2.066c0.534,0.607,1.196,0.916,1.986,0.916
			c0.811,0,1.479-0.294,2.004-0.884C176.648,24.656,176.916,23.944,176.916,23.072z"/>
		<path fill="#339636" d="M182.936,29.374v-6.436c0-1.138,0.062-1.978,0.193-2.509c0.117-0.52,0.369-1.048,0.746-1.57
			c0.924-1.349,2.373-2.024,4.355-2.024c0.129,0,0.318,0,0.568,0v3.309c-0.174,0.018-0.316,0.027-0.432,0.027
			c-0.74-0.019-1.256,0.118-1.553,0.412c-0.305,0.308-0.447,0.829-0.43,1.572v7.219H182.936z"/>
		<path fill="#339636" d="M202.787,23.096c-0.021,1.883-0.645,3.445-1.869,4.686c-1.205,1.274-2.725,1.93-4.553,1.965
			c-1.834-0.035-3.355-0.691-4.561-1.968c-1.24-1.245-1.873-2.797-1.891-4.663c0.018-1.89,0.65-3.469,1.891-4.733
			c1.205-1.264,2.719-1.907,4.531-1.924c1.832,0.018,3.357,0.663,4.582,1.929C202.143,19.632,202.766,21.203,202.787,23.096z
			 M193.586,11.206c0.498,0.021,0.898,0.197,1.213,0.531c0.303,0.33,0.453,0.751,0.453,1.254s-0.16,0.911-0.484,1.224
			c-0.309,0.353-0.723,0.526-1.238,0.526c-0.488,0-0.891-0.173-1.211-0.526c-0.359-0.33-0.539-0.75-0.539-1.252
			c0-0.503,0.168-0.924,0.51-1.258c0.32-0.329,0.729-0.499,1.215-0.499H193.586z M199.291,23.069
			c-0.018-0.871-0.309-1.602-0.869-2.191c-0.551-0.583-1.25-0.882-2.094-0.9c-0.809,0.018-1.494,0.318-2.055,0.9
			c-0.584,0.589-0.881,1.326-0.881,2.218c0,0.897,0.297,1.643,0.881,2.239c0.561,0.626,1.256,0.939,2.082,0.939
			c0.846-0.021,1.543-0.342,2.098-0.967C198.992,24.707,199.273,23.961,199.291,23.069z M199.184,11.206
			c0.486,0,0.889,0.17,1.211,0.499c0.324,0.334,0.494,0.755,0.514,1.258c-0.02,0.502-0.189,0.922-0.514,1.252
			c-0.322,0.353-0.734,0.526-1.24,0.526c-0.488,0-0.893-0.173-1.215-0.526c-0.34-0.33-0.512-0.75-0.512-1.252
			c0-0.503,0.182-0.924,0.539-1.258C198.289,11.376,198.693,11.206,199.184,11.206z"/>
		<path fill="#339636" d="M212.236,29.374v-6.658c0-0.578-0.01-0.99-0.037-1.225c-0.039-0.257-0.111-0.472-0.223-0.64
			c-0.396-0.668-0.961-1.01-1.701-1.03c-0.322,0-0.641,0.09-0.957,0.271c-0.322,0.208-0.58,0.464-0.771,0.759
			c-0.111,0.168-0.176,0.373-0.195,0.612c-0.053,0.235-0.08,0.663-0.08,1.28v6.631h-3.453v-6.489c0-0.969,0.084-1.767,0.25-2.396
			c0.176-0.615,0.455-1.186,0.83-1.712c1.113-1.504,2.578-2.277,4.381-2.317c1.854,0.018,3.332,0.809,4.426,2.367
			c0.693,0.971,1.031,2.287,1.014,3.94v6.607H212.236z"/>
		<path fill="#339636" d="M226.805,29.389v-1.033c-1.098,0.8-2.168,1.194-3.205,1.173c-1.604-0.04-2.969-0.678-4.1-1.924
			c-1.17-1.225-1.764-2.713-1.781-4.465c0.018-1.837,0.629-3.354,1.838-4.565c1.168-1.244,2.645-1.877,4.422-1.896
			c2.088,0.019,3.764,0.896,5.027,2.624c0.49,0.628,0.834,1.284,1.023,1.967c0.115,0.354,0.188,0.743,0.227,1.171
			c0.016,0.427,0.025,0.916,0.025,1.457v5.491H226.805z M226.764,22.921c-0.059-0.771-0.348-1.43-0.869-1.979
			c-0.525-0.503-1.178-0.767-1.951-0.788c-0.752,0.021-1.396,0.304-1.932,0.842c-0.545,0.588-0.826,1.303-0.844,2.137
			c0,0.836,0.293,1.535,0.873,2.098c0.531,0.607,1.193,0.911,1.986,0.911c0.789,0,1.449-0.304,1.975-0.911
			c0.492-0.543,0.74-1.251,0.762-2.126C226.764,23.051,226.764,22.987,226.764,22.921z"/>
	</g>
</g>
<path fill="#339636" d="M289.195,14.203c3.55,12.394-4.98,26.55-19.051,30.581c-14.065,4.029-28.343-2.24-31.896-14.628
	c-3.55-12.389,4.982-24.676,19.049-28.705C271.369-2.581,285.65,1.823,289.195,14.203z"/>
<path fill="#FFFFFF" d="M288.249,14.541c-3.415-11.919-17.161-16.154-30.696-12.277c-13.54,3.877-21.749,15.708-18.333,27.624
	c3.409,11.927,17.156,17.956,30.695,14.076C283.455,40.085,291.662,26.46,288.249,14.541z M267.725,39.457
	c-3.526,0.692-6.991,0.681-10.191,0.088c-1.03-3.031-2.103-9.856,5.123-17.126l-3.004,0.133c-5.122,5.039-5.852,11.99-4.81,16.355
	c-6.497-1.999-11.459-6.66-12.739-13.162c-2.05-10.401,5.288-20.11,17.39-22.495c12.104-2.376,24.064,1.348,26.112,11.753
	C287.653,25.397,279.827,37.071,267.725,39.457z"/>
<g>
	<g>
		<path fill="#ADD5AF" d="M263.817,21.553c-2.542,2.957-4.562,6.75-4.562,6.75s-0.707-3.6,2.56-7.873"/>
		<path fill="#5CAB5E" d="M262.439,23.524c-0.363,0.626-2.816,3.976-2.816,3.976s0.286-2.094,1.687-4.152"/>
	</g>
	<g>
		<g>
			<path fill="#85C086" d="M261.604,21.501c-3.146,3.076-4.019,6.849-4.019,6.849s1.554-2.305,6.704-5.324"/>
		</g>
		<path fill="#ADD5AF" d="M260.292,23.296c-0.751,0.927-1.969,3.689-1.969,3.689s1.794-2.072,2.998-3.186"/>
	</g>
	<g>
		<path fill="#5CAB5E" d="M261.841,20.963c-3.15,3.076-6.483,3.811-6.483,3.811s4.018,0.73,9.166-2.286"/>
		<path fill="#85C086" d="M260.873,22.964c-3.12,1.582-4.459,1.576-4.459,1.576s2.06-1.089,3.62-2.349"/>
	</g>
	<path fill="#5CAB5E" d="M260.817,22.668c-2.198,2.522-4.484,3.367-4.484,3.367s2.031,0.393,4.076-1.936"/>
</g>
<path fill="#FFE900" d="M277.084,27.914c-0.094-0.833-1.313-0.916-1.771-1.566c-0.457-0.65,2.572,0.539,2.493-0.246
	c-0.081-0.786-1.697-1.005-2.454-1.515c-0.754-0.516,1.113,0.106,1.36-0.713c0.247-0.819-1.103-0.666-1.606-1.082
	c-0.507-0.418,0.984-0.055,1.877-0.552c0.895-0.497-2.936-0.658-3.593-0.809c-0.654-0.152,0.532-0.4,1.499-1.116
	c0.97-0.715,0.122-0.671-0.739-0.458c-0.86,0.208-0.75-0.295-1.194-1.199c-0.449-0.907-0.768-0.953-1.466-1.265
	c-0.691-0.31-0.677-0.342-0.96-0.844c-0.277-0.507-0.816-1.25-1.262-1.457c-0.447-0.213-0.829-0.776-1.073-1.262
	c-0.25-0.487-0.481-0.618-1.366-1.205c0,0-0.527,0.002-0.641-0.41c-0.118-0.412-0.635-0.184-0.746,0.016
	c-0.115,0.197-1.143-0.212-1.309-1.002c-0.161-0.787-0.793-0.753-1.221-0.691c-0.188,0.028-0.421,0.352-0.662,0.731
	c-0.312-0.581-0.63-1.137-0.641-0.493c-0.01,0.462,0.17,0.793,0.31,1.03c-0.185,0.304-0.359,0.575-0.504,0.711
	c-0.115-0.18-0.244-0.381-0.363-0.552c-0.286-0.4,0.285-1.297-0.062-1.648c-0.35-0.356-1.894-0.57-1.309-0.229
	c0.313,0.179,0.412,1.01,0.454,1.881c-0.26-0.311-0.581-0.708-1.019-1.265c-2.023-2.582-4.78-0.785-3.71-1.139
	c1.07-0.351,3.52,1.946,3.871,3.018c0.354,1.067-0.633-0.272-1.776-1.185c-0.906-0.714-2.875-0.995-3.064-0.771l-0.053-0.058
	c-0.834-0.367-1.873-1.629-2.584-1.284c-0.709,0.346,1.899,2.294,1.107,2.247c-0.798-0.046-1.504-1.04-2.266-0.678
	c-0.765,0.36-1.937-0.022-1.991,0.16c-0.058,0.188,0.447,0.383,0.995,0.644c0.557,0.255,1.194,0.561,0.271,0.358
	c-0.925-0.205-1.635,0.223-1.684,0.549c-0.045,0.32,2.27-0.678,4.099,0.794c1.829,1.481-2.618-0.977-4.003-0.185
	c-1.386,0.8,0.683,0.125,2.66,1.249c1.975,1.127-3.338-0.323-3.765,1.084c-0.427,1.414-0.441,0.212,0.522,0.655
	c0.973,0.446-1.039,0.448-0.306,0.762c0.734,0.319,4.591-0.907,6.546-0.137c1.954,0.771-3.033,0.188-3.323,0.716
	c-0.291,0.534-1.164,1.178,0.04,1.276c1.195,0.094,1.14-0.177,3.049-0.04c1.913,0.142-0.131,0.419-0.106,0.778
	c0.02,0.357,0.78,0.11,2.163-0.208c0.205-0.047,0.349-0.062,0.467-0.065c-0.854,0.664-2.198,1.27-2.527,1.69
	c-0.231,0.288,2.147,0.326,2.149-0.258c0-0.268,0.263-0.302,0.58-0.241c-0.019,0.107-0.012,0.212,0.039,0.311
	c0.378,0.727-1.288,1.224-1.3,1.867c-0.004,0.644,2.701-0.901,3.59-1.023c0.888-0.117-3.533,1.902-2.06,1.973
	c0.979,0.047,2.453-0.624,3.549-1.008c0.229,0.406,0.324,0.917-0.332,1.303c-0.976,0.576-0.207,0.26-0.043,1.418
	c0.251,1.76,1.019-0.942,1.618-0.61c-0.316,0.958-0.898,2.507-0.585,2.562c0.247,0.047,0.607-0.998,0.866-2.085
	c0.188,0.75-0.014,2.085,0.65,3.048c0.837,1.21,0.814-2.367,1.183-1.555c0.365,0.821,0.478,3.931,1.021,3.583
	c0.289-0.184,0.22-1.979,0.212-3.627c0.485,1.379,0.99,2.847,1.394,3.229c0.898,0.854-0.487-2.74-0.079-4.481
	c0.006-0.02,0.01-0.043,0.016-0.064c0.113,0.58,0.164,1.197,0.173,1.604c0.016,0.966,0.62-0.173,1.074,1.173
	c0.462,1.348,1.157,5.052,1.47,4.879c0.311-0.167-1.321-5.059-0.194-3.507c1.122,1.553,1.024,3.194,1.739,4.164
	c0.713,0.971,0.803-0.115,1.102-0.639c0.253-0.442-2.927-6.535-2.949-7.727c0.947,1.251,1.451,3.155,2.167,4.001
	c0.499,0.592,0.007-0.635-0.443-2.226c1.371,2.52,2.761,6.491,3.251,6.833c0.655,0.461-0.475-2.312,0.411-1.723
	c0.888,0.583-0.067,2.264,0.908,1.161c0.972-1.099-2.685-5.26-0.686-4.175c1.997,1.089,2.144,3.605,2.09,2.007
	c-0.06-1.597-4.052-3.466-1.835-2.69c2.22,0.773,2.154,2.655,2.402,2.447c0.25-0.208,0.243-1.038-0.418-1.716
	c-0.66-0.679-0.149-0.434,0.361-0.103c0.508,0.33,1.027,0.798,1.154,0.655C278.121,29.546,277.179,28.752,277.084,27.914z"/>
</svg>
