<?xml version="1.0" encoding="utf-8"?>
<!-- Generator: Adobe Illustrator 15.1.0, SVG Export Plug-In . SVG Version: 6.00 Build 0)  -->
<svg version="1.2" baseProfile="tiny" id="Layer_1" xmlns="http://www.w3.org/2000/svg" xmlns:xlink="http://www.w3.org/1999/xlink"
	 x="0px" y="0px" width="130px" height="342px" viewBox="0 0 130 342" overflow="inherit" xml:space="preserve">
<path fill="#2B912C" d="M128.011,35.201c8.777,30.714-12.321,65.797-47.125,75.786c-34.792,9.986-70.108-5.552-78.897-36.248
	C-6.789,44.032,14.313,13.583,49.11,3.598C83.914-6.395,119.24,4.519,128.011,35.201z"/>
<path fill="#FFFFFF" d="M125.669,36.036C117.221,6.497,83.218-3.997,49.738,5.61C16.248,15.219-4.057,44.538,4.391,74.069
	c8.434,29.557,42.437,44.5,75.927,34.883C113.812,99.341,134.11,65.578,125.669,36.036z M74.9,97.783
	C66.178,99.499,57.607,99.471,49.689,98c-2.545-7.51-5.2-24.423,12.676-42.442l-7.433,0.329
	C42.263,68.374,40.458,85.602,43.036,96.421c-16.071-4.956-28.347-16.505-31.51-32.624c-5.07-25.773,13.08-49.833,43.013-55.746
	c29.941-5.889,59.526,3.34,64.593,29.126C124.195,62.943,104.836,91.873,74.9,97.783z"/>
<g>
	<g>
		<path fill="#AAD3AB" d="M65.237,53.313c-6.289,7.314-11.285,16.698-11.285,16.698s-1.752-8.906,6.331-19.477"/>
		<path fill="#55A756" d="M61.828,58.191c-0.899,1.548-6.966,9.833-6.966,9.833s0.706-5.18,4.171-10.269"/>
	</g>
	<g>
		<g>
			<path fill="#80BD80" d="M59.763,53.186c-7.785,7.608-9.94,16.945-9.94,16.945s3.841-5.702,16.58-13.172"/>
		</g>
		<path fill="#AAD3AB" d="M56.515,57.625c-1.857,2.292-4.87,9.127-4.87,9.127s4.438-5.126,7.416-7.881"/>
	</g>
	<g>
		<path fill="#55A756" d="M60.346,51.856c-7.792,7.607-16.036,9.426-16.036,9.426s9.937,1.805,22.672-5.655"/>
		<path fill="#80BD80" d="M57.951,56.804c-7.718,3.912-11.029,3.897-11.029,3.897s5.095-2.693,8.954-5.811"/>
	</g>
	<path fill="#55A756" d="M57.814,56.073C52.375,62.312,46.722,64.4,46.722,64.4s5.024,0.969,10.084-4.787"/>
</g>
<path fill="#FFE90A" d="M98.053,69.049c-0.235-2.064-3.252-2.268-4.386-3.876c-1.127-1.608,6.366,1.334,6.169-0.607
	c-0.2-1.945-4.199-2.486-6.07-3.748c-1.864-1.276,2.756,0.263,3.363-1.765c0.611-2.028-2.725-1.648-3.971-2.675
	c-1.254-1.036,2.433-0.137,4.642-1.366c2.212-1.229-7.262-1.627-8.887-2c-1.619-0.376,1.316-0.99,3.708-2.76
	c2.397-1.77,0.302-1.661-1.83-1.134c-2.128,0.513-1.854-0.73-2.952-2.967c-1.11-2.242-1.9-2.358-3.628-3.129
	c-1.71-0.765-1.671-0.844-2.373-2.087c-0.688-1.253-2.02-3.09-3.122-3.603c-1.105-0.528-2.05-1.919-2.654-3.121
	c-0.618-1.205-1.19-1.528-3.381-2.979c0,0-1.303,0.005-1.584-1.013c-0.291-1.02-1.569-0.456-1.844,0.039
	c-0.287,0.486-2.83-0.525-3.237-2.48c-0.4-1.947-1.962-1.863-3.02-1.71c-0.463,0.07-1.042,0.869-1.64,1.808
	c-0.772-1.436-1.555-2.812-1.583-1.22c-0.024,1.145,0.421,1.963,0.766,2.549c-0.457,0.751-0.888,1.422-1.247,1.759
	c-0.284-0.444-0.604-0.943-0.899-1.366c-0.706-0.99,0.706-3.209-0.151-4.079c-0.864-0.879-4.684-1.41-3.237-0.565
	c0.776,0.442,1.018,2.499,1.124,4.653c-0.643-0.769-1.436-1.75-2.521-3.129c-5.004-6.385-11.822-1.941-9.175-2.817
	c2.647-0.869,8.704,4.813,9.575,7.465c0.874,2.64-1.566-0.674-4.396-2.93c-2.24-1.766-7.11-2.46-7.581-1.907l-0.13-0.142
	c-2.061-0.91-4.631-4.031-6.391-3.176c-1.752,0.855,4.698,5.674,2.739,5.559c-1.973-0.114-3.718-2.574-5.604-1.677
	c-1.893,0.892-4.789-0.054-4.926,0.395c-0.14,0.465,1.11,0.948,2.465,1.594c1.373,0.632,2.953,1.387,0.671,0.885
	c-2.29-0.507-4.045,0.551-4.165,1.357c-0.112,0.792,5.615-1.678,10.137,1.965c4.522,3.662-6.475-2.416-9.902-0.458
	c-3.427,1.98,1.689,0.309,6.58,3.09c4.884,2.79-8.255-0.797-9.312,2.683c-1.057,3.498-1.092,0.525,1.292,1.621
	c2.405,1.103-2.57,1.108-0.755,1.884c1.815,0.79,11.355-2.242,16.19-0.339c4.835,1.907-7.503,0.463-8.22,1.771
	c-0.72,1.322-2.879,2.913,0.099,3.157c2.956,0.233,2.819-0.438,7.542-0.099c4.733,0.351-0.323,1.038-0.263,1.924
	c0.049,0.883,1.931,0.272,5.351-0.513c0.505-0.118,0.864-0.154,1.155-0.163c-2.114,1.643-5.439,3.141-6.254,4.182
	c-0.572,0.713,5.312,0.808,5.32-0.637c0-0.662,0.649-0.748,1.433-0.595c-0.046,0.265-0.028,0.525,0.098,0.769
	c0.934,1.798-3.188,3.028-3.216,4.617c-0.01,1.592,6.682-2.228,8.88-2.53c2.195-0.29-8.739,4.703-5.095,4.879
	c2.423,0.116,6.067-1.542,8.778-2.493c0.569,1.004,0.8,2.267-0.822,3.222c-2.412,1.426-0.513,0.643-0.105,3.508
	c0.622,4.354,2.521-2.331,4.003-1.51c-0.783,2.37-2.223,6.201-1.447,6.338c0.611,0.115,1.503-2.469,2.142-5.158
	c0.463,1.854-0.032,5.154,1.608,7.539c2.072,2.991,2.016-5.854,2.925-3.846c0.902,2.03,1.183,9.72,2.527,8.863
	c0.717-0.457,0.541-4.898,0.523-8.976c1.201,3.413,2.451,7.044,3.448,7.988c2.223,2.11-1.204-6.78-0.196-11.085
	c0.014-0.049,0.024-0.105,0.038-0.158c0.281,1.433,0.407,2.96,0.429,3.968c0.038,2.392,1.534-0.428,2.658,2.904
	c1.141,3.332,2.861,12.493,3.634,12.064c0.769-0.414-3.269-12.514-0.481-8.673c2.777,3.842,2.535,7.9,4.302,10.299
	c1.767,2.401,1.987-0.285,2.725-1.584c0.629-1.092-7.236-16.162-7.293-19.108c2.342,3.094,3.589,7.803,5.358,9.896
	c1.236,1.464,0.021-1.57-1.096-5.506c3.392,6.232,6.829,16.057,8.041,16.903c1.622,1.141-1.173-5.724,1.018-4.263
	c2.195,1.446-0.164,5.6,2.248,2.872c2.405-2.718-6.644-13.013-1.696-10.327c4.94,2.693,5.302,8.919,5.169,4.965
	c-0.147-3.95-10.021-8.574-4.54-6.653c5.491,1.913,5.33,6.565,5.944,6.054c0.618-0.513,0.601-2.567-1.036-4.245
	c-1.633-1.679-0.368-1.071,0.896-0.253c1.257,0.814,2.539,1.973,2.854,1.618C100.617,73.087,98.285,71.121,98.053,69.049z"/>
<g>
	<path fill="#2B912C" d="M54.538,236.051c-29.933,5.912-48.083,29.973-43.013,55.746c3.164,16.119,15.439,27.668,31.51,32.624
		c-2.578-10.819-0.772-28.047,11.896-40.534l7.433-0.328C44.488,301.577,47.143,318.49,49.688,326
		c7.918,1.471,16.489,1.499,25.21-0.217c29.937-5.91,49.295-34.84,44.231-60.605C114.063,239.392,84.478,230.162,54.538,236.051z"/>
	<path fill="#00730A" d="M128.01,263.201c-8.771-30.682-44.098-41.596-78.901-31.604c-34.796,9.985-55.899,40.435-47.121,71.141
		c8.789,30.696,44.105,46.234,78.897,36.248C115.689,328.998,136.788,293.915,128.01,263.201z M80.317,336.952
		c-33.49,9.617-67.493-5.326-75.927-34.883c-8.448-29.531,11.857-58.851,45.348-68.459c33.479-9.607,67.482,0.886,75.931,30.426
		C134.109,293.578,113.811,327.341,80.317,336.952z"/>
</g>
<g>
	<g>
		<path fill="#AAD3AB" d="M65.236,281.313c-6.289,7.314-11.285,16.698-11.285,16.698s-1.752-8.906,6.331-19.477"/>
		<path fill="#55A756" d="M61.827,286.191c-0.899,1.548-6.966,9.833-6.966,9.833s0.706-5.18,4.171-10.269"/>
	</g>
	<g>
		<g>
			<path fill="#80BD80" d="M59.763,281.186c-7.785,7.608-9.94,16.945-9.94,16.945s3.841-5.702,16.58-13.172"/>
		</g>
		<path fill="#AAD3AB" d="M56.515,285.625c-1.857,2.293-4.87,9.128-4.87,9.128s4.438-5.126,7.416-7.881"/>
	</g>
	<g>
		<path fill="#55A756" d="M60.345,279.856c-7.792,7.607-16.036,9.426-16.036,9.426s9.937,1.805,22.671-5.655"/>
		<path fill="#80BD80" d="M57.951,284.804c-7.718,3.912-11.029,3.897-11.029,3.897s5.095-2.693,8.954-5.811"/>
	</g>
	<path fill="#55A756" d="M57.813,284.073c-5.438,6.238-11.092,8.327-11.092,8.327s5.024,0.969,10.084-4.787"/>
</g>
<path fill="#FFE90A" d="M98.052,297.049c-0.235-2.064-3.252-2.268-4.386-3.876c-1.127-1.608,6.366,1.334,6.169-0.607
	c-0.2-1.945-4.199-2.486-6.07-3.748c-1.864-1.276,2.756,0.263,3.363-1.765c0.611-2.027-2.725-1.648-3.971-2.676
	c-1.254-1.035,2.433-0.137,4.642-1.365c2.212-1.229-7.262-1.628-8.887-2c-1.619-0.376,1.316-0.99,3.708-2.76
	c2.397-1.77,0.302-1.661-1.83-1.135c-2.128,0.514-1.854-0.73-2.952-2.967c-1.11-2.242-1.9-2.357-3.628-3.129
	c-1.71-0.765-1.671-0.844-2.373-2.087c-0.688-1.253-2.02-3.09-3.122-3.603c-1.105-0.528-2.05-1.919-2.654-3.121
	c-0.618-1.205-1.19-1.527-3.381-2.979c0,0-1.303,0.005-1.584-1.013c-0.291-1.021-1.569-0.457-1.844,0.038
	c-0.287,0.486-2.83-0.524-3.237-2.48c-0.399-1.946-1.962-1.862-3.019-1.71c-0.463,0.07-1.042,0.869-1.64,1.809
	c-0.772-1.437-1.555-2.812-1.583-1.221c-0.024,1.145,0.421,1.963,0.766,2.549c-0.457,0.752-0.888,1.423-1.247,1.76
	c-0.284-0.444-0.604-0.943-0.899-1.365c-0.706-0.99,0.706-3.21-0.151-4.079c-0.864-0.88-4.684-1.409-3.237-0.565
	c0.776,0.442,1.018,2.498,1.124,4.652c-0.643-0.769-1.436-1.75-2.521-3.129c-5.004-6.385-11.822-1.941-9.175-2.816
	c2.647-0.869,8.704,4.812,9.575,7.465c0.874,2.64-1.566-0.675-4.396-2.931c-2.24-1.767-7.11-2.46-7.581-1.907l-0.13-0.142
	c-2.061-0.909-4.631-4.031-6.391-3.177c-1.752,0.855,4.698,5.675,2.739,5.559c-1.973-0.113-3.718-2.573-5.604-1.676
	c-1.893,0.892-4.789-0.055-4.926,0.395c-0.14,0.465,1.11,0.948,2.465,1.594c1.373,0.633,2.953,1.387,0.671,0.885
	c-2.29-0.507-4.045,0.552-4.165,1.357c-0.112,0.792,5.615-1.678,10.137,1.965c4.522,3.662-6.475-2.416-9.902-0.459
	c-3.427,1.98,1.689,0.31,6.58,3.09c4.884,2.791-8.255-0.797-9.312,2.684c-1.057,3.497-1.092,0.524,1.292,1.62
	c2.405,1.103-2.57,1.108-0.755,1.884c1.815,0.79,11.355-2.242,16.19-0.339c4.835,1.907-7.503,0.464-8.22,1.771
	c-0.72,1.321-2.879,2.913,0.099,3.157c2.956,0.232,2.819-0.438,7.542-0.1c4.733,0.352-0.323,1.038-0.263,1.925
	c0.049,0.884,1.931,0.272,5.351-0.513c0.505-0.117,0.864-0.154,1.155-0.163c-2.114,1.644-5.439,3.141-6.254,4.182
	c-0.572,0.713,5.312,0.808,5.32-0.638c0-0.661,0.649-0.748,1.433-0.595c-0.046,0.265-0.028,0.524,0.098,0.769
	c0.934,1.799-3.188,3.029-3.216,4.617c-0.01,1.593,6.682-2.227,8.88-2.529c2.195-0.289-8.739,4.703-5.095,4.879
	c2.423,0.116,6.067-1.541,8.778-2.493c0.569,1.005,0.8,2.267-0.822,3.222c-2.412,1.426-0.513,0.643-0.105,3.508
	c0.622,4.354,2.521-2.331,4.003-1.51c-0.783,2.37-2.223,6.201-1.447,6.338c0.611,0.115,1.503-2.469,2.142-5.158
	c0.463,1.854-0.032,5.154,1.608,7.539c2.072,2.991,2.016-5.854,2.925-3.846c0.902,2.03,1.182,9.72,2.527,8.863
	c0.717-0.457,0.541-4.898,0.523-8.976c1.201,3.413,2.451,7.044,3.448,7.988c2.223,2.11-1.204-6.78-0.196-11.085
	c0.014-0.049,0.024-0.105,0.038-0.158c0.281,1.433,0.407,2.96,0.429,3.968c0.038,2.392,1.534-0.428,2.658,2.904
	c1.141,3.332,2.861,12.493,3.634,12.064c0.769-0.414-3.269-12.514-0.481-8.673c2.777,3.842,2.535,7.9,4.302,10.299
	c1.767,2.401,1.987-0.285,2.725-1.584c0.629-1.092-7.236-16.162-7.293-19.108c2.342,3.094,3.589,7.803,5.358,9.896
	c1.236,1.464,0.021-1.57-1.096-5.506c3.392,6.232,6.829,16.057,8.041,16.903c1.622,1.141-1.173-5.724,1.018-4.263
	c2.195,1.446-0.164,5.6,2.248,2.872c2.405-2.718-6.644-13.013-1.696-10.327c4.94,2.693,5.302,8.919,5.169,4.965
	c-0.147-3.95-10.021-8.574-4.54-6.653c5.491,1.913,5.33,6.565,5.944,6.054c0.618-0.513,0.601-2.567-1.036-4.245
	c-1.633-1.679-0.368-1.071,0.896-0.253c1.257,0.814,2.539,1.973,2.854,1.618C100.616,301.087,98.284,299.121,98.052,297.049z"/>
</svg>
