<?xml version="1.0" encoding="utf-8"?>
<!-- Generator: Adobe Illustrator 16.0.0, SVG Export Plug-In . SVG Version: 6.00 Build 0)  -->
<!DOCTYPE svg PUBLIC "-//W3C//DTD SVG 1.1//EN" "http://www.w3.org/Graphics/SVG/1.1/DTD/svg11.dtd">
<svg version="1.1" id="Lager_1" xmlns="http://www.w3.org/2000/svg" xmlns:xlink="http://www.w3.org/1999/xlink" x="0px" y="0px"
	 width="426px" height="126px" viewBox="0 -2 426 126" enable-background="new 0 -2 426 126" xml:space="preserve">
<g>
	<path fill="#2B912C" d="M423.571,37.881c9.324,32.568-13.09,69.77-50.063,80.371c-36.96,10.578-74.477-5.895-83.817-38.449
		c-9.321-32.556,13.097-64.843,50.058-75.432C376.718-6.219,414.25,5.35,423.571,37.881z"/>
	<g>
		<path fill="#FFFFFF" d="M421.055,38.77C412.076,7.448,375.956-3.681,340.39,6.506c-35.578,10.191-57.15,41.277-48.177,72.594
			c8.962,31.342,45.08,47.181,80.664,36.986C408.455,105.898,430.013,70.086,421.055,38.77z M367.117,104.234
			c-9.26,1.824-18.368,1.801-26.776,0.234c-2.709-7.955-5.528-25.896,13.459-44.999l-7.896,0.346
			c-13.454,13.245-15.37,31.502-12.634,42.98c-17.073-5.255-30.114-17.5-33.475-34.588c-5.388-27.33,13.892-52.846,45.69-59.108
			c31.812-6.247,63.239,3.536,68.621,30.878C419.484,67.3,398.921,97.977,367.117,104.234z"/>
		<g>
			<g>
				<path fill="#B2E7CA" d="M356.856,57.201c-6.685,7.762-11.991,17.729-11.991,17.729s-1.859-9.46,6.724-20.689"/>
				<path fill="#33BE71" d="M353.234,62.375c-0.962,1.646-7.405,10.455-7.405,10.455s0.75-5.514,4.432-10.915"/>
			</g>
			<g>
				<g>
					<path fill="#66CE94" d="M351.036,57.056c-8.271,8.088-10.562,17.999-10.562,17.999s4.085-6.049,17.616-13.986"/>
				</g>
				<path fill="#B2E7CA" d="M347.588,61.773c-1.975,2.438-5.175,9.694-5.175,9.694s4.713-5.444,7.879-8.366"/>
			</g>
			<g>
				<path fill="#33BE71" d="M351.657,55.649c-8.278,8.078-17.035,10.012-17.035,10.012s10.557,1.923,24.087-6.007"/>
				<path fill="#66CE94" d="M349.113,60.904c-8.2,4.159-11.718,4.143-11.718,4.143s5.412-2.865,9.517-6.177"/>
			</g>
			<path fill="#33BE71" d="M348.963,60.127c-5.774,6.623-11.778,8.844-11.778,8.844s5.335,1.037,10.712-5.076"/>
		</g>
		<path fill="#F9E500" d="M391.714,73.91c-0.249-2.189-3.454-2.406-4.662-4.112c-1.195-1.71,6.771,1.409,6.556-0.653
			c-0.212-2.062-4.461-2.637-6.443-3.979c-1.984-1.351,2.927,0.284,3.571-1.871c0.644-2.154-2.897-1.756-4.219-2.843
			c-1.332-1.101,2.581-0.142,4.926-1.446c2.354-1.312-7.714-1.732-9.438-2.127c-1.72-0.403,1.4-1.053,3.943-2.926
			c2.544-1.887,0.317-1.771-1.943-1.211c-2.265,0.54-1.975-0.777-3.137-3.156c-1.183-2.377-2.021-2.502-3.857-3.314
			c-1.814-0.815-1.772-0.905-2.523-2.223c-0.729-1.334-2.142-3.283-3.312-3.83c-1.174-0.561-2.175-2.037-2.822-3.312
			c-0.649-1.276-1.264-1.624-3.587-3.168c0,0-1.386,0.008-1.686-1.071c-0.312-1.088-1.672-0.488-1.959,0.039
			c-0.302,0.516-3.009-0.557-3.438-2.635c-0.427-2.07-2.084-1.979-3.205-1.82c-0.491,0.078-1.109,0.928-1.744,1.929
			c-0.819-1.526-1.647-2.995-1.683-1.302c-0.029,1.217,0.447,2.083,0.812,2.707c-0.482,0.799-0.941,1.512-1.324,1.869
			c-0.305-0.471-0.641-1-0.951-1.445c-0.753-1.053,0.743-3.416-0.161-4.337c-0.92-0.933-4.976-1.497-3.441-0.601
			c0.827,0.47,1.08,2.65,1.192,4.941c-0.684-0.813-1.521-1.859-2.679-3.32c-5.315-6.783-12.562-2.064-9.747-2.994
			c2.812-0.92,9.252,5.113,10.177,7.928c0.927,2.805-1.665-0.717-4.673-3.113c-2.374-1.874-7.554-2.613-8.058-2.023l-0.136-0.15
			c-2.185-0.967-4.919-4.288-6.786-3.373c-1.859,0.908,4.987,6.025,2.909,5.904c-2.095-0.125-3.949-2.736-5.957-1.782
			c-2.01,0.944-5.087-0.062-5.23,0.414c-0.147,0.499,1.177,1.011,2.616,1.7c1.458,0.671,3.142,1.475,0.717,0.938
			c-2.436-0.536-4.301,0.581-4.43,1.441c-0.116,0.844,5.967-1.783,10.775,2.085c4.808,3.891-6.882-2.563-10.527-0.484
			c-3.635,2.104,1.795,0.326,6.993,3.283c5.191,2.963-8.765-0.85-9.888,2.846c-1.123,3.721-1.159,0.562,1.375,1.727
			c2.552,1.172-2.734,1.176-0.808,1.997c1.927,0.838,12.063-2.385,17.197-0.361c5.138,2.027-7.969,0.489-8.728,1.888
			c-0.767,1.406-3.062,3.09,0.102,3.351c3.143,0.247,2.995-0.469,8.01-0.106c5.032,0.377-0.34,1.103-0.273,2.049
			c0.048,0.938,2.047,0.286,5.681-0.551c0.539-0.123,0.921-0.16,1.231-0.166c-2.247,1.741-5.779,3.335-6.643,4.438
			c-0.612,0.763,5.639,0.856,5.649-0.678c0-0.702,0.685-0.793,1.517-0.629c-0.045,0.279-0.022,0.553,0.106,0.811
			c0.992,1.914-3.387,3.223-3.416,4.914c-0.009,1.687,7.1-2.375,9.433-2.691c2.329-0.309-9.286,4.996-5.411,5.186
			c2.569,0.125,6.442-1.637,9.324-2.654c0.606,1.069,0.851,2.41-0.873,3.43c-2.562,1.512-0.542,0.681-0.11,3.724
			c0.66,4.625,2.681-2.479,4.249-1.605c-0.828,2.521-2.356,6.591-1.531,6.73c0.648,0.125,1.599-2.617,2.273-5.479
			c0.495,1.971-0.037,5.479,1.71,8.012c2.2,3.181,2.139-6.221,3.103-4.086c0.959,2.154,1.26,10.328,2.688,9.412
			c0.76-0.479,0.572-5.203,0.558-9.525c1.274,3.619,2.6,7.475,3.661,8.48c2.363,2.242-1.272-7.201-0.212-11.772
			c0.018-0.054,0.028-0.117,0.049-0.166c0.292,1.516,0.427,3.139,0.451,4.209c0.041,2.539,1.625-0.456,2.821,3.077
			c1.214,3.552,3.042,13.283,3.862,12.826c0.819-0.438-3.478-13.291-0.514-9.215c2.948,4.078,2.694,8.394,4.57,10.938
			c1.878,2.551,2.112-0.297,2.899-1.675c0.664-1.161-7.689-17.172-7.753-20.307c2.484,3.293,3.814,8.293,5.694,10.514
			c1.31,1.554,0.021-1.67-1.168-5.848c3.606,6.621,7.252,17.053,8.545,17.953c1.726,1.215-1.246-6.074,1.079-4.525
			c2.335,1.535-0.174,5.951,2.388,3.056c2.557-2.892-7.053-13.826-1.801-10.976c5.249,2.861,5.635,9.478,5.493,5.277
			c-0.156-4.195-10.642-9.113-4.82-7.074c5.835,2.036,5.661,6.98,6.309,6.435c0.657-0.546,0.641-2.728-1.098-4.511
			c-1.733-1.781-0.391-1.138,0.95-0.264c1.338,0.859,2.698,2.09,3.031,1.713C394.437,78.197,391.962,76.115,391.714,73.91z"/>
	</g>
	<g>
		<path fill="#FFFFFF" d="M30.152,51.869v-15.51c0-1.547-0.177-2.609-0.536-3.182c-0.637-1.268-1.642-1.926-2.98-1.96
			c-1.22,0.034-2.21,0.647-2.968,1.833c-0.371,0.618-0.559,1.255-0.559,1.933v1.441v15.444H15.63V36.425
			c0-1.09-0.025-1.83-0.062-2.233c-0.049-0.389-0.226-0.771-0.541-1.141c-0.783-1.141-1.901-1.731-3.357-1.775
			c-1.396,0.044-2.502,0.646-3.326,1.84c-0.251,0.364-0.396,0.744-0.438,1.133c-0.083,0.371-0.128,1.115-0.128,2.236V51.87H0.293
			V37.672c0-2.244,0.138-3.982,0.419-5.209c0.253-1.163,0.72-2.309,1.39-3.436c2.162-3.201,5.12-4.834,8.885-4.919
			c3.001,0,5.607,1.173,7.808,3.526c2.546-2.354,5.14-3.506,7.778-3.471c3.799,0.041,6.803,1.706,8.997,4.979
			c0.814,1.119,1.355,2.285,1.64,3.49c0.195,0.633,0.317,1.352,0.359,2.154c0,0.837,0,1.816,0,2.938v14.144L30.152,51.869
			L30.152,51.869z"/>
		<path fill="#FFFFFF" d="M50.356,51.869h-7.413V24.918h7.413V51.869z"/>
		<path fill="#FFFFFF" d="M55.864,51.869V9.988h7.425v41.881H55.864z"/>
		<path fill="#FFFFFF" d="M63.509,59.437c0.377,0,0.701,0,0.982,0c2.905,0.041,4.344-1.595,4.306-4.897v-2.52V24.911h7.417v26.882
			c0,1.588-0.018,2.875-0.058,3.828c-0.122,2.887-0.893,5.285-2.315,7.205c-1.861,2.512-4.592,3.795-8.193,3.829
			c-0.5,0-1.204-0.034-2.139-0.117V59.437z"/>
		<path fill="#FFFFFF" d="M107.917,38.377c-0.047,4.05-1.378,7.405-4.014,10.072c-2.591,2.738-5.855,4.146-9.794,4.223
			c-3.936-0.076-7.2-1.484-9.794-4.229c-2.679-2.68-4.031-6.016-4.07-10.023c0.039-4.066,1.393-7.459,4.07-10.176
			c2.594-2.719,5.838-4.1,9.734-4.136c3.939,0.036,7.225,1.421,9.854,4.144C106.539,30.928,107.87,34.306,107.917,38.377z
			 M100.413,38.318c-0.047-1.875-0.674-3.447-1.877-4.711c-1.183-1.252-2.688-1.895-4.508-1.936
			c-1.732,0.041-3.205,0.684-4.409,1.936c-1.257,1.264-1.893,2.85-1.893,4.77c0,1.926,0.636,3.529,1.893,4.811
			c1.204,1.348,2.701,2.021,4.478,2.021c1.816-0.047,3.32-0.735,4.499-2.081C99.766,41.837,100.366,40.234,100.413,38.318z"/>
		<path fill="#FFFFFF" d="M110.761,41.656c-0.043-3.295,0.158-5.748,0.599-7.361c0.415-1.626,1.221-3.179,2.436-4.639
			c2.771-3.428,6.287-5.172,10.547-5.21c3.801,0.038,6.958,1.376,9.473,4.011c2.551,2.633,3.849,5.912,3.887,9.85
			c-0.038,3.848-1.3,7.078-3.771,9.713c-2.478,2.711-5.513,4.1-9.119,4.182c-1.977,0.046-4.174-0.59-6.571-1.922v16.435h-7.478
			L110.761,41.656L110.761,41.656z M118.238,38.299c0,1.793,0.592,3.283,1.756,4.483c1.125,1.3,2.576,1.95,4.348,1.95
			c1.738,0,3.18-0.65,4.311-1.95c1.042-1.155,1.597-2.63,1.632-4.421c-0.035-1.793-0.604-3.32-1.69-4.578
			c-1.133-1.164-2.557-1.764-4.252-1.805c-1.709,0.041-3.137,0.641-4.286,1.805C118.884,34.998,118.279,36.511,118.238,38.299z"/>
		<path fill="#FFFFFF" d="M160.262,51.901v-2.22c-2.364,1.721-4.65,2.565-6.892,2.52c-3.443-0.082-6.384-1.455-8.812-4.131
			c-2.521-2.635-3.785-5.834-3.832-9.6c0.047-3.949,1.358-7.211,3.952-9.812c2.519-2.676,5.684-4.038,9.509-4.078
			c4.486,0.04,8.097,1.925,10.81,5.643c1.051,1.346,1.783,2.758,2.197,4.225c0.25,0.764,0.401,1.598,0.482,2.518
			c0.041,0.921,0.061,1.971,0.061,3.133v11.804h-7.475V51.901z M160.169,37.998c-0.117-1.658-0.746-3.074-1.869-4.258
			c-1.128-1.08-2.531-1.648-4.19-1.689c-1.617,0.041-3.005,0.653-4.156,1.809c-1.166,1.268-1.767,2.802-1.812,4.594
			c0,1.8,0.627,3.3,1.877,4.509c1.15,1.308,2.566,1.958,4.276,1.958c1.692,0,3.11-0.65,4.245-1.958
			c1.044-1.165,1.588-2.688,1.631-4.569C160.169,38.277,160.169,38.143,160.169,37.998z"/>
		<path fill="#FFFFFF" d="M171.956,51.869V38.037c0-2.445,0.142-4.254,0.416-5.395c0.263-1.117,0.793-2.256,1.611-3.375
			c1.971-2.902,5.096-4.35,9.361-4.35c0.282,0,0.684,0,1.222,0v7.109c-0.379,0.042-0.685,0.059-0.926,0.059
			c-1.595-0.041-2.713,0.255-3.336,0.887c-0.664,0.658-0.977,1.781-0.932,3.378v15.519H171.956z"/>
		<path fill="#FFFFFF" d="M204.632,51.939c-0.559,0-1.062,0-1.512,0c-1.629,0-3.084-0.209-4.37-0.609
			c-1.582-0.6-3.008-1.587-4.271-2.982c-1.052-1.161-1.748-2.407-2.109-3.716c-0.373-1.282-0.582-3.149-0.62-5.581v-2.059V32.27
			h-4.502v-7.353h4.502v-9.229h7.411v9.229h5.473v7.353h-5.473v5.401v1.076c0,1.215,0.059,2.094,0.188,2.646
			c0.073,0.592,0.243,1.12,0.493,1.567c0.332,0.632,0.868,1.069,1.644,1.315c0.728,0.309,1.78,0.467,3.147,0.467V51.939
			L204.632,51.939z"/>
		<path fill="#FFFFFF" d="M216.313,51.869h-7.416V24.918h7.416V51.869z"/>
		<path fill="#FFFFFF" d="M266.179,51.939c-0.551,0-1.057,0-1.521,0c-1.614,0-3.075-0.209-4.361-0.609
			c-1.576-0.6-3.006-1.587-4.272-2.982c-1.045-1.161-1.752-2.407-2.104-3.716c-0.371-1.282-0.58-3.149-0.622-5.581v-2.059V32.27
			H248.8v-7.353h4.498v-9.229h7.415v9.229h5.468v7.353h-5.468v5.401v1.076c0,1.215,0.053,2.094,0.176,2.646
			c0.079,0.592,0.251,1.12,0.506,1.567c0.317,0.632,0.868,1.069,1.639,1.315c0.73,0.309,1.774,0.467,3.147,0.467v7.197H266.179z"/>
		<ellipse fill="#FFFFFF" cx="46.634" cy="17.697" rx="4.146" ry="4.354"/>
		<ellipse fill="#FFFFFF" cx="212.558" cy="17.697" rx="4.146" ry="4.354"/>
		<ellipse fill="#FFFFFF" cx="72.492" cy="17.697" rx="4.146" ry="4.354"/>
		<path fill="#FFFFFF" d="M91.667,17.172c0,2.11-1.633,3.822-3.646,3.822c-2.012,0-3.644-1.712-3.644-3.822
			c0-2.115,1.632-3.827,3.644-3.827C90.034,13.345,91.667,15.057,91.667,17.172z"/>
		<path fill="#FFFFFF" d="M103.693,17.172c0,2.11-1.634,3.822-3.646,3.822c-2.014,0-3.645-1.712-3.645-3.822
			c0-2.115,1.631-3.827,3.645-3.827C102.059,13.345,103.693,15.057,103.693,17.172z"/>
		<g>
			<g>
				<path fill="#FFFFFF" d="M246.109,43.16c-2.408,5.928-6.697,8.95-12.852,9.063c-3.904-0.083-7.135-1.439-9.688-4.083
					c-2.642-2.603-3.981-5.865-4.022-9.802c0.041-3.952,1.382-7.214,4.022-9.775c2.553-2.594,5.762-3.926,9.618-3.962
					c3.647,0.036,6.788,1.239,9.42,3.593c2.606,2.315,3.938,5.1,4.021,8.359c0,1.479-0.541,2.636-1.623,3.481
					c-1.104,0.877-2.58,1.318-4.424,1.318h-12.998c0.629,1.596,1.625,2.635,2.976,3.124c0.817,0.386,1.664,0.581,2.551,0.581
					c1.55,0.04,3-0.585,4.35-1.898L246.109,43.16L246.109,43.16z M238.475,35.754c-1.067-2.62-2.897-3.929-5.488-3.929
					c-2.768,0.044-4.648,1.35-5.647,3.929H238.475z"/>
			</g>
		</g>
	</g>
	<g>
		<path fill="#FFFFFF" d="M192.186,70.816c0,2.11-1.628,3.826-3.644,3.826c-2.01,0-3.643-1.716-3.643-3.826
			c0-2.115,1.633-3.824,3.643-3.824C190.558,66.992,192.186,68.701,192.186,70.816z"/>
		<ellipse fill="#FFFFFF" cx="200.569" cy="70.816" rx="3.644" ry="3.826"/>
		<g>
			<path fill="#FFFFFF" d="M88.378,90.061c0,2.26-0.129,4.069-0.413,5.434c-0.272,1.385-0.841,2.722-1.692,4.005
				c-2.665,4.205-6.444,6.339-11.312,6.426c-3.828-0.045-6.995-1.418-9.507-4.133c-2.632-2.591-3.967-5.84-4.007-9.76
				c0.04-3.896,1.337-7.142,3.887-9.734c2.429-2.667,5.422-4.03,8.994-4.069c1.175,0,2.219,0.104,3.108,0.301
				c0.925,0.32,2.082,0.846,3.437,1.602V63.637h7.506L88.378,90.061L88.378,90.061z M68.863,92.074
				c0.035,1.789,0.644,3.265,1.805,4.426c1.151,1.296,2.562,1.945,4.215,1.945c1.74,0,3.186-0.649,4.303-1.945
				c1.125-1.161,1.722-2.637,1.781-4.426c-0.061-1.788-0.656-3.307-1.781-4.574c-1.117-1.203-2.562-1.818-4.303-1.863
				c-1.703,0.045-3.124,0.646-4.271,1.801C69.446,88.662,68.863,90.208,68.863,92.074z"/>
			<path fill="#FFFFFF" d="M144.466,108.12c0.791,3.627,2.748,5.487,5.876,5.56c3.604-0.031,5.452-2.621,5.556-7.77l0.058-2.451
				c-1.51,0.92-2.707,1.531-3.595,1.838c-0.893,0.328-1.925,0.488-3.112,0.488c-3.604-0.085-6.616-1.434-9.054-4.074
				c-2.514-2.594-3.794-5.82-3.829-9.66c0.035-4.035,1.371-7.342,4.009-9.945c2.52-2.635,5.704-3.973,9.569-4.01
				c4.021,0.037,7.243,1.412,9.649,4.135c2.48,2.679,3.738,6.256,3.779,10.729v11.954c0,2.718-0.176,4.84-0.541,6.379
				c-0.412,1.553-1.146,3.02-2.193,4.42c-2.633,3.338-6.084,5.053-10.346,5.133c-2.553-0.035-4.879-0.736-6.983-2.082
				c-2.152-1.279-3.777-3.035-4.871-5.256c-0.386-0.763-0.66-1.516-0.822-2.273c-0.247-0.75-0.455-1.795-0.613-3.113L144.466,108.12
				L144.466,108.12z M155.898,91.973c-0.062-1.84-0.637-3.354-1.729-4.535c-1.124-1.168-2.564-1.77-4.307-1.811
				c-1.699,0.041-3.123,0.643-4.271,1.811c-1.172,1.183-1.752,2.707-1.752,4.595c0,1.801,0.58,3.278,1.752,4.442
				c1.148,1.308,2.572,1.963,4.271,1.963c1.741,0,3.183-0.629,4.307-1.896C155.323,95.378,155.898,93.846,155.898,91.973z"/>
			<path fill="#FFFFFF" d="M166.882,105.518V91.684c0-2.444,0.134-4.252,0.415-5.393c0.257-1.118,0.794-2.256,1.604-3.377
				c1.989-2.902,5.102-4.352,9.362-4.352c0.28,0,0.685,0,1.228,0v7.112c-0.38,0.037-0.684,0.06-0.937,0.06
				c-1.588-0.043-2.696,0.252-3.33,0.887c-0.661,0.656-0.965,1.781-0.928,3.375v15.521H166.882L166.882,105.518z"/>
			<path fill="#FFFFFF" d="M208.479,92.021c-0.044,4.051-1.383,7.408-4.015,10.076c-2.591,2.733-5.854,4.145-9.79,4.223
				c-3.938-0.078-7.209-1.488-9.805-4.229c-2.664-2.683-4.022-6.017-4.062-10.024c0.038-4.062,1.396-7.457,4.062-10.172
				c2.596-2.721,5.847-4.104,9.742-4.138c3.938,0.032,7.218,1.419,9.853,4.144C207.096,84.576,208.435,87.953,208.479,92.021z
				 M200.967,91.967c-0.041-1.873-0.662-3.447-1.866-4.715c-1.188-1.25-2.69-1.895-4.504-1.932c-1.741,0.037-3.21,0.682-4.418,1.932
				c-1.257,1.268-1.896,2.85-1.896,4.771c0,1.925,0.639,3.531,1.896,4.812c1.208,1.347,2.701,2.022,4.479,2.022
				c1.814-0.049,3.316-0.735,4.507-2.084C200.323,95.484,200.926,93.881,200.967,91.967z"/>
			<path fill="#FFFFFF" d="M227.906,105.518V91.202c0-1.239-0.021-2.127-0.08-2.63c-0.084-0.557-0.243-1.014-0.481-1.377
				c-0.849-1.438-2.062-2.17-3.655-2.211c-0.688,0-1.38,0.189-2.058,0.576c-0.688,0.446-1.245,1.002-1.653,1.635
				c-0.244,0.363-0.387,0.803-0.421,1.314c-0.115,0.506-0.179,1.428-0.179,2.752v14.256h-7.419V91.568
				c0-2.088,0.185-3.797,0.538-5.152c0.375-1.321,0.975-2.545,1.782-3.682c2.398-3.23,5.539-4.896,9.421-4.979
				c3.979,0.032,7.158,1.738,9.51,5.087c1.492,2.087,2.222,4.916,2.179,8.47v14.205H227.906L227.906,105.518z"/>
			<path fill="#FFFFFF" d="M258.703,105.551v-2.221c-2.36,1.719-4.656,2.568-6.886,2.52c-3.449-0.082-6.386-1.455-8.816-4.132
				c-2.514-2.638-3.791-5.834-3.83-9.603c0.039-3.945,1.354-7.207,3.951-9.811c2.512-2.676,5.688-4.039,9.505-4.078
				c4.493,0.039,8.093,1.926,10.809,5.645c1.059,1.343,1.795,2.758,2.204,4.225c0.244,0.762,0.399,1.598,0.481,2.519
				c0.036,0.919,0.058,1.967,0.058,3.133v11.805L258.703,105.551L258.703,105.551z M258.615,91.645
				c-0.12-1.658-0.748-3.071-1.866-4.258c-1.131-1.078-2.531-1.645-4.195-1.687c-1.614,0.042-3.005,0.649-4.15,1.808
				c-1.173,1.266-1.777,2.801-1.816,4.592c0,1.803,0.631,3.303,1.879,4.512c1.144,1.305,2.566,1.957,4.27,1.957
				c1.698,0,3.118-0.652,4.242-1.957c1.061-1.166,1.599-2.688,1.64-4.573C258.615,91.925,258.615,91.786,258.615,91.645z"/>
			<g>
				<path fill="#FFFFFF" d="M118.554,96.811c-2.407,5.926-6.698,8.948-12.85,9.063c-3.906-0.083-7.135-1.44-9.688-4.083
					c-2.641-2.604-3.981-5.866-4.022-9.803c0.041-3.951,1.383-7.215,4.022-9.773c2.554-2.594,5.762-3.926,9.619-3.965
					c3.646,0.039,6.787,1.24,9.418,3.594c2.607,2.318,3.939,5.1,4.021,8.357c0,1.482-0.541,2.637-1.623,3.482
					c-1.105,0.875-2.579,1.32-4.423,1.32h-13c0.631,1.594,1.626,2.63,2.978,3.123c0.816,0.384,1.665,0.579,2.549,0.579
					c1.551,0.041,3-0.586,4.349-1.896H118.554L118.554,96.811z M110.921,89.402c-1.068-2.617-2.898-3.926-5.488-3.926
					c-2.767,0.041-4.647,1.35-5.646,3.926H110.921z"/>
			</g>
		</g>
	</g>
</g>
</svg>
