<?xml version="1.0" encoding="utf-8"?>
<!-- Generator: Adobe Illustrator 15.1.0, SVG Export Plug-In . SVG Version: 6.00 Build 0)  -->
<svg version="1.2" baseProfile="tiny" id="Layer_1" xmlns="http://www.w3.org/2000/svg" xmlns:xlink="http://www.w3.org/1999/xlink"
	 x="0px" y="0px" width="15em" height="65em" viewBox="0 0 15 65" overflow="inherit" xml:space="preserve">
<g>
	<ellipse fill="none" cx="6.029" cy="6.019" rx="4.019" ry="4.012"/>
	<path fill="#989898" d="M12.057,6.019c0-3.32-2.694-6.013-6.018-6.019h-0.02C2.694,0.005,0,2.698,0,6.019
		c0,3.324,2.699,6.019,6.029,6.019c1.203,0,2.318-0.361,3.259-0.968L13.224,15L15,13.227l-3.93-3.923
		C11.689,8.359,12.057,7.233,12.057,6.019z M6.029,10.032c-2.22,0-4.019-1.797-4.019-4.013c0-2.216,1.799-4.012,4.019-4.012
		c2.219,0,4.018,1.796,4.018,4.012C10.047,8.235,8.248,10.032,6.029,10.032z"/>
	<path fill="#339933" d="M12.057,56.019c0-3.324-2.699-6.019-6.028-6.019C2.699,50,0,52.694,0,56.019s2.699,6.02,6.029,6.02
		c1.203,0,2.318-0.361,3.259-0.969L13.224,65L15,63.227l-3.93-3.923C11.689,58.358,12.057,57.232,12.057,56.019z"/>
</g>
</svg>
